<!--?xml version="1.0" encoding="utf-8"?-->
<!-- Generator: Adobe Illustrator 25.0.1, SVG Export Plug-In . SVG Version: 6.00 Build 0)  -->
<svg version="1.1" xmlns="http://www.w3.org/2000/svg" xmlns:xlink="http://www.w3.org/1999/xlink" x="0px" y="0px" viewBox="0 0 560.4 421.1" style="" xml:space="preserve">
<style>
#back{
animation:1s ease 2s normal forwards 1 fadein;
-webkit-animation:1s ease 2s normal forwards 1 fadein;
opacity:0
}

@keyframes fadein{from{opacity:0}
to{opacity:1}
}

@-webkit-keyframes fadein{from{opacity:0}
to{opacity:1}
}
</style>
<style type="text/css">
	.st0{fill:#97ABFF;}
	.st1{fill:#FFFFFF;}
	.st2{fill:#D7E2FF;}
	.st3{fill:none;}
	.st4{clip-path:url(#SVGID_2_);fill:#97ABFF;}
	.st5{clip-path:url(#SVGID_4_);fill:#97ABFF;}
	.st6{fill:#4964F5;}
	.st7{font-family:'GillSans';}
	.st8{font-size:8.7885px;}
	.st9{fill:none;stroke:#4964F5;stroke-width:3.3497;stroke-linecap:round;stroke-miterlimit:10;}
	.st10{fill:none;stroke:#4964F5;stroke-width:2.1;stroke-linecap:round;stroke-miterlimit:10;}
	.st11{fill:none;stroke:#4964F5;stroke-width:3.3498;stroke-linecap:round;stroke-miterlimit:10.0002;}
	.st12{fill:none;stroke:#4964F5;stroke-width:3.1252;stroke-linecap:round;stroke-miterlimit:10;}
</style>
<g id="back">
	<path class="st0 miNHxvKv_0" d="M378.7,85.7l-16.2-2.1V59.7l17,1.5L378.7,85.7z"></path>
	<path class="st0 miNHxvKv_1" d="M35.3,188.7l16.2-2.1v-23.9l-17,1.5L35.3,188.7z"></path>
	<g id="Livello_11">
	</g>
	<g id="Livello_2_1_">
		<path class="st1 miNHxvKv_2" d="M199.3,287.7c0,0,62.6-36.6,95-27.6s58.4,22.8,58.4,22.8l42.5,41.4l6.4,18l-73.3,11.1l-20.2,4.2l-37.7-3.2
			L199.3,287.7z"></path>
		<path class="st2 miNHxvKv_3" d="M111.7,293l-5.2,11.1l81.6,82.8l3.2,2l144.9-21.5l4-4l0.4-10.8l3.6-1.6l7.6,8l8,5.6l131.8-25.5l2-14.3
			c0,0-21.5,9.2-57.3-2c-35.8-11.1-58.5-13.1-82.8,16.7l-4.4,9.2c0,0-9.2,2-13.9,1.6c0,0-6.4-6-31.1-9.2s-62.5,18.7-79.6,23.5
			s-31.9,8.8-31.9,8.8L111.7,293z"></path>
		<path class="st0 miNHxvKv_4" d="M493.1,333.7l11.9,8.4l-0.4,8.8L368.4,382l2,7.6l-35.4,7.2l-0.4-4.8l-0.8-3.2l-151.7,22.3L89.7,310.8l3.2-9.2
			l13.9-2.8l-0.4,5.5l84.5,84.9l143.3-20.9c0,0,5.1-1.5,6-5s-1-13.3,3.1-12.2c4.1,1.1,13.2,13.8,13.2,13.8l24.7-5.6L492,338.7
			L493.1,333.7"></path>
		<path class="st1 miNHxvKv_5" d="M353.4,339.7c0,0,20.6-30.9,54.6-23.7c34,7.2,58.2,19,85,8.8v-0.1l-46.8-31.4l-69.1-44.8"></path>
		<path class="st1 miNHxvKv_6" d="M335.8,350c-13.4-9.8-46.4-12.9-77.3,1c-26.1,11.7-55,20.2-63.5,22.5c-1.5,0.4-3.1,0-4.2-1.1L110.9,292
			c-0.3-0.3-0.1-0.8,0.3-0.8c11.5,0,30.8-14,30.8-14s35.6-32,77.8-27.8"></path>
		<path class="st3 miNHxvKv_7" d="M192.5,374.8l-4,10.9c-0.9,1.7,0.5,3.7,2.4,3.4l143.3-20.9c4.2-0.6,7.2-4.3,6.9-8.6c-0.3-4.5-0.1-9.3,2.2-8.7
			c2.6,0.7,6.6,5.6,9.2,9.3c1.8,2.5,5,3.8,8.1,3.2L492,338.7l1-13.9"></path>
		<path class="st3 miNHxvKv_8" d="M110.9,292.1l-4.4,12l81.4,84.1"></path>
		<path class="st3 miNHxvKv_9" d="M492.8,333.4l12.4,9v0.1l-143.5,30.8c-1.1,0.2-1.6,1.5-1.1,2.4l2.4,4.3c0.4,0.7,0,1.6-0.8,1.7l-22.7,4.1
			c-0.8,0.1-1.5-0.5-1.4-1.3l0.6-4.3c0.2-1.1-0.8-2-1.9-1.9l-153,23.3c-1.6,0.2-3.1-0.3-4.2-1.5l-88-98.1c-0.3-0.4-0.1-1,0.4-1.1
			l15.8-2.2"></path>
		<path class="st3 miNHxvKv_10" d="M505.2,342.4l-0.7,8.3l-134.8,30.7c-1.1,0.2-1.6,1.5-1.1,2.4l2.4,4.3c0.4,0.7,0,1.6-0.8,1.7l-34,6
			c-0.8,0.1-1.5-0.5-1.4-1.3l0.6-4.3c0.2-1.1-0.8-2-1.9-1.9l-149.7,22.4c-1.6,0.2-3.1-0.3-4.2-1.5l-88-98.1c-0.3-0.4,0-9.3,0-9.3"></path>
	</g>
	<g id="page1">
		<path class="st1 miNHxvKv_11" d="M238.9,243.3c-13.9-13.9-41.8-9.8-57.2-4.1c-15.3,5.6-48.1,19.7-72.7,9.7c-0.2-0.1-0.3,0.2-0.2,0.3l97.6,83.3
			c0,0,66-23.2,130.9,12.4"></path>
	</g>
	<g id="page2">
		<path class="st1 miNHxvKv_12" d="M349.2,348.5c9.8-30.4,26.3-40.7,60.3-42.8c34-2.1,42.8-23.2,42.8-23.2l-53.6-36.1l-54.6-38.7
			c0,0-3.1,15.5-23.2,32.5s-12.4,48.5-12.4,48.5"></path>
	</g>
	<g id="page3_1_">
		<path class="st1 miNHxvKv_13" d="M345.6,343.8c0,0-1.5-25.8,25.8-47.4c22.7-18,27.6-47,28.6-56.3c0.2-1.8-0.6-3.6-2.1-4.6L314,178.3
			c-0.6-0.4-1.4,0-1.5,0.7c-1.4,12.5-17.4,31.4-17.4,31.4s-24.7,25.3-8.8,53.6"></path>
	</g>
	<g id="page4">
		<path class="st1 miNHxvKv_14" d="M266.3,248c0,0-29.6-71.7-37.1-86.2c-0.3-0.5,0.4-1.1,0.8-0.7l82.6,62.5c0.1,0.1,0.2,0.2,0.2,0.3
			c1.4,4.1,29.3,84.7,28.3,116.8"></path>
	</g>
	<g id="page5">
		<path class="st1 miNHxvKv_15" d="M282.7,264.4c0,0-29.4-34-62.4-48.5c-29.9-13.1-61.5-19-67.2-20c-0.2,0-0.3,0.2-0.2,0.4l97.7,71.6
			c0,0,64.4,34,81.4,69.1"></path>
	</g>
	<g id="img">
		<g>
			<path class="st0 miNHxvKv_16" d="M219,97.1h62.7c1.4,0,2.5-1.1,2.5-2.5V61.7V31.9c0-1.4-1.1-2.5-2.5-2.5H219c-1.4,0-2.5,1.1-2.5,2.5v62.7
				C216.5,96,217.6,97.1,219,97.1z"></path>
			<g>
				<g>
					<path id="XMLID_2_" class="st1 miNHxvKv_17" d="M210.8,90.5h62.7c1.4,0,2.5-1.1,2.5-2.5V55.1V25.3c0-1.4-1.1-2.5-2.5-2.5h-62.7
						c-1.4,0-2.5,1.1-2.5,2.5V88C208.2,89.3,209.4,90.5,210.8,90.5z"></path>
				</g>
				<g>
					<g>
						<defs>
							<path id="SVGID_1_" d="M210.8,90.5h62.7c1.4,0,2.5-1.1,2.5-2.5V55.1V25.3c0-1.4-1.1-2.5-2.5-2.5h-62.7
								c-1.4,0-2.5,1.1-2.5,2.5V88C208.2,89.3,209.4,90.5,210.8,90.5z" class="miNHxvKv_18"></path>
						</defs>
						<clipPath id="SVGID_2_">
							<use xlink:href="#SVGID_1_" style="overflow:visible;"></use>
						</clipPath>
						<path class="st4 miNHxvKv_19" d="M203.4,68.8c0,0,19.7-20.9,28.7-14.9s16.1,15.1,20.7,13.3c4.6-1.8,22.5-7.8,23.1-7.8s10.4,9.6,10.4,9.6
							l-9,35.2l-30.3,5.4l-67.9-8.6l5-13.5L203.4,68.8z"></path>
					</g>
				</g>
				<g>
					<g>
						<defs>
							<path id="SVGID_3_" d="M210.8,90.5h62.7c1.4,0,2.5-1.1,2.5-2.5V55.1V25.3c0-1.4-1.1-2.5-2.5-2.5h-62.7
								c-1.4,0-2.5,1.1-2.5,2.5V88C208.2,89.3,209.4,90.5,210.8,90.5z" class="miNHxvKv_20"></path>
						</defs>
						<clipPath id="SVGID_4_">
							<use xlink:href="#SVGID_3_" style="overflow:visible;"></use>
						</clipPath>
						<path class="st5 miNHxvKv_21" d="M248,42.7c0-3.4,2.8-6.2,6.2-6.2c3.4,0,6.2,2.8,6.2,6.2c0,0,0,0,0,0c0,3.4-2.8,6.2-6.2,6.2
							C250.8,48.9,248,46.1,248,42.7C248,42.7,248,42.7,248,42.7"></path>
					</g>
				</g>
				<g>
					<path id="XMLID_1_" class="st3 miNHxvKv_22" d="M210.8,90.5h62.7c1.4,0,2.5-1.1,2.5-2.5V55.1V25.3c0-1.4-1.1-2.5-2.5-2.5h-62.7
						c-1.4,0-2.5,1.1-2.5,2.5V88C208.2,89.3,209.4,90.5,210.8,90.5z"></path>
				</g>
			</g>
		</g>
	</g>
	<g id="card">
		<g>
			<path class="st0 miNHxvKv_23" d="M157.1,151.1H51.3c-2.4,0-4.3-1.9-4.3-4.3V91.3V40.9c0-2.4,1.9-4.3,4.3-4.3h105.8c2.4,0,4.3,1.9,4.3,4.3
				v105.8C161.4,149.1,159.5,151.1,157.1,151.1z"></path>
			<path class="st1 miNHxvKv_24" d="M171.1,139.9H65.3c-2.4,0-4.3-1.9-4.3-4.3V80.1V29.7c0-2.4,1.9-4.3,4.3-4.3h105.8c2.4,0,4.3,1.9,4.3,4.3
				v105.8C175.4,137.9,173.5,139.9,171.1,139.9z"></path>
			<path class="st0 miNHxvKv_25" d="M70.3,60.7c0-8.2,6.7-14.9,14.9-14.9c8.2,0,14.9,6.7,14.9,14.9c0,0,0,0,0,0c0,8.2-6.7,14.9-14.9,14.9
				S70.3,68.9,70.3,60.7C70.3,60.7,70.3,60.7,70.3,60.7"></path>
			<path class="st0 miNHxvKv_26" d="M104,54.2h52.2v8.4H104V54.2z"></path>
			<path class="st0 miNHxvKv_27" d="M104,65.4h45.9v8.9H104V65.4z"></path>
			<path class="st0 miNHxvKv_28" d="M71.9,87.7h92.6v41.2H71.9V87.7z"></path>
		</g>
	</g>
	<g id="postit2">
		<g>
			<path class="st0 miNHxvKv_29" d="M65.2,183.4c0,0-2,55.6,23.8,59.7c0.5,0.1,0.5,0.8,0,0.9l-63.1,14.8c0,0-25.5-34.5-19.6-67.4L65.2,183.4z"></path>
			<path class="st1 miNHxvKv_30" d="M71.6,173.5c0,0-2,55.6,23.8,59.7c0.5,0.1,0.5,0.8,0,0.9l-63.1,14.8c0,0-25.5-34.5-19.6-67.4L71.6,173.5z"></path>
		</g>
	</g>
	<g id="postit1">
		<g>
			<path class="st0 miNHxvKv_31" d="M348.8,80.4c0,0,2,55.6-23.8,59.7c-0.5,0.1-0.5,0.8,0,0.9l63.1,14.8c0,0,25.5-34.5,19.6-67.4L348.8,80.4z"></path>
			<path class="st1 miNHxvKv_32" d="M342.4,70.5c0,0,2,55.6-23.8,59.7c-0.5,0.1-0.5,0.8,0,0.9l63.1,14.8c0,0,25.5-34.5,19.6-67.4L342.4,70.5z"></path>
		</g>
	</g>
	<g id="pencil">
		<g>
			<path class="st0 miNHxvKv_33" d="M496,78.5l3.3,2.5l-61.1,80c-0.1,0.1-0.1,0.3,0.1,0.4l0.5,0.4c-0.5-0.1-1.1,0.2-1.2,0.8l-2.7,20.1
				c0,0.7,0.7,1.3,1.3,1l18.7-7.9c0.5-0.2,0.7-0.9,0.5-1.4l0.5,0.4c0.1,0.1,0.3,0.1,0.4-0.1l61.1-80l3.6,2.7l3.7-4.8l-3.4-2.6
				l6.3-8.2c1.7-2.2,1.3-5.4-1-7.1l-9.9-7.6c-2.2-1.7-5.4-1.3-7.1,1l-6.3,8.2l-3.4-2.6L496,78.5L496,78.5z"></path>
			<g>
				<path class="st0 miNHxvKv_34" d="M507.7,67.2l9.9,7.6c2.2,1.7,2.7,4.9,1,7.1l-6.4,8.4l-18-13.8l6.4-8.4C502.2,65.9,505.4,65.5,507.7,67.2z"></path>
				<path class="st1 miNHxvKv_35" d="M509.5,93.9l-61.8,81c-0.1,0.1-0.3,0.2-0.4,0.1l-17.7-13.5c-0.1-0.1-0.2-0.3-0.1-0.4l61.8-81
					c0.1-0.1,0.3-0.2,0.4-0.1l17.7,13.5C509.6,93.7,509.6,93.8,509.5,93.9z"></path>
				<path class="st1 miNHxvKv_36" d="M487.3,78.6l3.7-4.8l24.9,19l-3.7,4.8L487.3,78.6z"></path>
				<path class="st1 miNHxvKv_37" d="M426.3,182.8l2.7-20.1c0-0.7,0.9-1.1,1.5-0.6l16.1,12.3c0.6,0.4,0.5,1.4-0.2,1.6l-18.7,7.9
					C427,184.1,426.2,183.5,426.3,182.8z"></path>
			</g>
		</g>
	</g>
	<g id="arrow2">
		<g>
			<g>
				<path class="st0 miNHxvKv_38" d="M335.4,16.8l6.5,1.8l6.4,1.9l-6.8,2.6l-2.9,6.7l-1.6-6.5L335.4,16.8z"></path>
				<path class="st6 miNHxvKv_39" d="M335.4,13.3l6.4,1.9l6.5,1.9l-6.9,2.5l-2.8,6.8l-1.6-6.5L335.4,13.3z"></path>
			</g>
			<path class="st0 miNHxvKv_40" d="M410.2,28.8h-48.6c-3.6,0-6.6-2.9-6.6-6.6l0,0c0-3.6,2.9-6.6,6.6-6.6h48.6c3.6,0,6.6,2.9,6.6,6.6l0,0
				C416.8,25.8,413.9,28.8,410.2,28.8z"></path>
			<path class="st6 miNHxvKv_41" d="M410.5,26h-48.6c-3.6,0-6.6-2.9-6.6-6.6l0,0c0-3.6,2.9-6.6,6.6-6.6h48.6c3.6,0,6.6,2.9,6.6,6.6l0,0
				C417,23.1,414.1,26,410.5,26z"></path>
			<text transform="matrix(1 0 0 1 377.547 22.313)" class="st1 st7 st8">TOM</text>
		</g>
	</g>
	<g id="Livello_9">
		<g>
			<g>
				<path class="st0 miNHxvKv_42" d="M467,231.6l6.5,1.9l6.4,1.9l-6.8,2.5l-2.9,6.8l-1.6-6.6L467,231.6z"></path>
				<path class="st6 miNHxvKv_43" d="M467,228.2l6.4,1.8l6.5,1.9l-6.9,2.6l-2.8,6.7l-1.6-6.5L467,228.2z"></path>
			</g>
			<path class="st0 miNHxvKv_44" d="M541.8,243.6h-48.6c-3.6,0-6.6-2.9-6.6-6.6l0,0c0-3.6,2.9-6.6,6.6-6.6h48.6c3.6,0,6.6,2.9,6.6,6.6l0,0
				C548.4,240.7,545.5,243.6,541.8,243.6z"></path>
			<path class="st6 miNHxvKv_45" d="M542.1,240.8h-48.6c-3.6,0-6.6-2.9-6.6-6.6l0,0c0-3.6,2.9-6.6,6.6-6.6h48.6c3.6,0,6.6,2.9,6.6,6.6l0,0
				C548.6,237.9,545.7,240.8,542.1,240.8z"></path>
			<text transform="matrix(1 0 0 1 508.6705 237.4902)" class="st1 st7 st8">LARA</text>
		</g>
	</g>
</g>
<g id="line">
	<path class="st9 miNHxvKv_46" d="M353.4,339.7c0,0,20.6-30.9,54.6-23.7c34,7.2,58.2,19,85,8.8v-0.1l-46.8-31.4"></path>
	<path class="st9 miNHxvKv_47" d="M335.8,350c-13.4-9.8-46.4-12.9-77.3,1c-26.1,11.7-55,20.2-63.5,22.5c-1.5,0.4-3.1,0-4.2-1.1L110.9,292
		c-0.3-0.3-0.1-0.8,0.3-0.8c11.5,0,30.8-14,30.8-14"></path>
	<path class="st9 miNHxvKv_48" d="M192.5,374.8l-4,10.9c-0.9,1.7,0.5,3.7,2.4,3.4l143.3-20.9c4.2-0.6,7.2-4.3,6.9-8.6c-0.3-4.5-0.1-9.3,2.2-8.7
		c2.6,0.7,6.6,5.6,9.2,9.3c1.8,2.5,5,3.8,8.1,3.2L492,338.7l1-13.9"></path>
	<path class="st9 miNHxvKv_49" d="M110.9,292.1l-4.4,12l81.4,84.1"></path>
	<path class="st9 miNHxvKv_50" d="M492.8,333.4l12.4,9v0.1l-143.5,30.8c-1.1,0.2-1.6,1.5-1.1,2.4l2.4,4.3c0.4,0.7,0,1.6-0.8,1.7l-22.7,4.1
		c-0.8,0.1-1.5-0.5-1.4-1.3l0.6-4.3c0.2-1.1-0.8-2-1.9-1.9l-153,23.3c-1.6,0.2-3.1-0.3-4.2-1.5l-88-98.1c-0.3-0.4-0.1-1,0.4-1.1
		l15.8-2.2"></path>
	<path class="st9 miNHxvKv_51" d="M505.2,342.4l-0.7,8.3l-134.8,30.7c-1.1,0.2-1.6,1.5-1.1,2.4l2.4,4.3c0.4,0.7,0,1.6-0.8,1.7l-34,6
		c-0.8,0.1-1.5-0.5-1.4-1.3l0.6-4.3c0.2-1.1-0.8-2-1.9-1.9l-149.7,22.4c-1.6,0.2-3.1-0.3-4.2-1.5l-88-98.1c-0.3-0.4,0-9.3,0-9.3"></path>
	<path class="st9 miNHxvKv_52" d="M203.4,234.3c-8.1,0.8-15.8,2.7-21.7,4.9c-15.3,5.6-48.1,19.7-72.7,9.7c-0.2-0.1-0.3,0.2-0.2,0.3l97.6,83.3
		c0,0,66-23.2,130.9,12.4"></path>
	<path class="st9 miNHxvKv_53" d="M349.2,348.5c9.8-30.4,26.3-40.7,60.3-42.8c34-2.1,42.8-23.2,42.8-23.2l-53.6-36.1"></path>
	<path class="st9 miNHxvKv_54" d="M345.6,343.8c0,0-1.5-25.8,25.8-47.4c22.7-18,27.6-47,28.6-56.3c0.2-1.8-0.6-3.6-2.1-4.6L314,178.3
		c-0.6-0.4-1.4,0-1.5,0.7c-1.4,12.5-17.4,31.4-17.4,31.4"></path>
	<path class="st9 miNHxvKv_55" d="M266.3,248c0,0-29.6-71.7-37.1-86.2c-0.3-0.5,0.4-1.1,0.8-0.7l82.6,62.5c0.1,0.1,0.2,0.2,0.2,0.3
		c1.4,4.1,29.3,84.7,28.3,116.8"></path>
	<path class="st9 miNHxvKv_56" d="M282.7,264.4c0,0-29.4-34-62.4-48.5c-29.9-13.1-61.5-19-67.2-20c-0.2,0-0.3,0.2-0.2,0.4l97.7,71.6
		c0,0,64.4,34,81.4,69.1"></path>
	<path class="st9 miNHxvKv_57" d="M171.1,139.9H65.3c-2.4,0-4.3-1.9-4.3-4.3V80.1V29.7c0-2.4,1.9-4.3,4.3-4.3h105.8c2.4,0,4.3,1.9,4.3,4.3v105.8
		C175.4,137.9,173.5,139.9,171.1,139.9z"></path>
	<path class="st10 miNHxvKv_58" d="M71.9,87.7h92.6v41.2H71.9V87.7z"></path>
	<path class="st10 miNHxvKv_59" d="M164.5,87.7l-92.6,41.2"></path>
	<path class="st10 miNHxvKv_60" d="M71.9,87.7l92.6,41.2"></path>
	<g>
		<path class="st9 miNHxvKv_61" d="M71.6,173.5c0,0-2,55.6,23.8,59.7c0.5,0.1,0.5,0.8,0,0.9l-63.1,14.8c0,0-25.5-34.5-19.6-67.4L71.6,173.5z"></path>
	</g>
	<path class="st9 miNHxvKv_62" d="M342.4,70.5c0,0,2,55.6-23.8,59.7c-0.5,0.1-0.5,0.8,0,0.9l63.1,14.8c0,0,25.5-34.5,19.6-67.4L342.4,70.5z"></path>
	<g>
		<g>
			<path class="st9 miNHxvKv_63" d="M494.9,76.2l6.4-8.4c1.6-2.2,4.8-2.6,7.1-0.9l9.9,7.6c2.2,1.7,2.7,4.9,1,7.1l-5.7,7.5"></path>
			<path class="st9 miNHxvKv_64" d="M508.7,95l-61,79.9c-0.1,0.1-0.3,0.2-0.4,0.1l-17.7-13.5c-0.1-0.1-0.2-0.3-0.1-0.4l60.6-79.5"></path>
			<path class="st11 miNHxvKv_65" d="M487.3,78.6l3.7-4.8l24.9,19l-3.7,4.8L487.3,78.6z"></path>
			<path class="st12 miNHxvKv_66" d="M426.3,182.8l2.7-20.1c0-0.7,0.9-1.1,1.5-0.6l16.1,12.3c0.6,0.4,0.5,1.4-0.2,1.6l-18.7,7.9
				C427,184.1,426.2,183.5,426.3,182.8z"></path>
		</g>
	</g>
	<g>
		<path id="XMLID_3_" class="st9 miNHxvKv_67" d="M210.8,90.5h62.7c1.4,0,2.5-1.1,2.5-2.5V55.1V25.3c0-1.4-1.1-2.5-2.5-2.5h-62.7
			c-1.4,0-2.5,1.1-2.5,2.5V88C208.2,89.3,209.4,90.5,210.8,90.5z"></path>
	</g>
</g>
<style data-made-with="vivus-instant">.miNHxvKv_0{stroke-dasharray:82 84;stroke-dashoffset:83;animation:miNHxvKv_draw 2340ms linear 0ms forwards;}.miNHxvKv_1{stroke-dasharray:82 84;stroke-dashoffset:83;animation:miNHxvKv_draw 2340ms linear 9ms forwards;}.miNHxvKv_2{stroke-dasharray:473 475;stroke-dashoffset:474;animation:miNHxvKv_draw 2340ms linear 19ms forwards;}.miNHxvKv_3{stroke-dasharray:907 909;stroke-dashoffset:908;animation:miNHxvKv_draw 2340ms linear 29ms forwards;}.miNHxvKv_4{stroke-dasharray:984 986;stroke-dashoffset:985;animation:miNHxvKv_draw 2340ms linear 39ms forwards;}.miNHxvKv_5{stroke-dasharray:289 291;stroke-dashoffset:290;animation:miNHxvKv_draw 2340ms linear 49ms forwards;}.miNHxvKv_6{stroke-dasharray:386 388;stroke-dashoffset:387;animation:miNHxvKv_draw 2340ms linear 59ms forwards;}.miNHxvKv_7{stroke-dasharray:354 356;stroke-dashoffset:355;animation:miNHxvKv_draw 2340ms linear 68ms forwards;}.miNHxvKv_8{stroke-dasharray:130 132;stroke-dashoffset:131;animation:miNHxvKv_draw 2340ms linear 78ms forwards;}.miNHxvKv_9{stroke-dasharray:514 516;stroke-dashoffset:515;animation:miNHxvKv_draw 2340ms linear 88ms forwards;}.miNHxvKv_10{stroke-dasharray:499 501;stroke-dashoffset:500;animation:miNHxvKv_draw 2340ms linear 98ms forwards;}.miNHxvKv_11{stroke-dasharray:399 401;stroke-dashoffset:400;animation:miNHxvKv_draw 2340ms linear 108ms forwards;}.miNHxvKv_12{stroke-dasharray:356 358;stroke-dashoffset:357;animation:miNHxvKv_draw 2340ms linear 118ms forwards;}.miNHxvKv_13{stroke-dasharray:324 326;stroke-dashoffset:325;animation:miNHxvKv_draw 2340ms linear 128ms forwards;}.miNHxvKv_14{stroke-dasharray:320 322;stroke-dashoffset:321;animation:miNHxvKv_draw 2340ms linear 137ms forwards;}.miNHxvKv_15{stroke-dasharray:380 382;stroke-dashoffset:381;animation:miNHxvKv_draw 2340ms linear 147ms forwards;}.miNHxvKv_16{stroke-dasharray:267 269;stroke-dashoffset:268;animation:miNHxvKv_draw 2340ms linear 157ms forwards;}.miNHxvKv_17{stroke-dasharray:267 269;stroke-dashoffset:268;animation:miNHxvKv_draw 2340ms linear 167ms forwards;}.miNHxvKv_18{stroke-dasharray:267 269;stroke-dashoffset:268;animation:miNHxvKv_draw 2340ms linear 177ms forwards;}.miNHxvKv_19{stroke-dasharray:275 277;stroke-dashoffset:276;animation:miNHxvKv_draw 2340ms linear 187ms forwards;}.miNHxvKv_20{stroke-dasharray:267 269;stroke-dashoffset:268;animation:miNHxvKv_draw 2340ms linear 197ms forwards;}.miNHxvKv_21{stroke-dasharray:39 41;stroke-dashoffset:40;animation:miNHxvKv_draw 2340ms linear 206ms forwards;}.miNHxvKv_22{stroke-dasharray:267 269;stroke-dashoffset:268;animation:miNHxvKv_draw 2340ms linear 216ms forwards;}.miNHxvKv_23{stroke-dasharray:451 453;stroke-dashoffset:452;animation:miNHxvKv_draw 2340ms linear 226ms forwards;}.miNHxvKv_24{stroke-dasharray:451 453;stroke-dashoffset:452;animation:miNHxvKv_draw 2340ms linear 236ms forwards;}.miNHxvKv_25{stroke-dasharray:94 96;stroke-dashoffset:95;animation:miNHxvKv_draw 2340ms linear 246ms forwards;}.miNHxvKv_26{stroke-dasharray:122 124;stroke-dashoffset:123;animation:miNHxvKv_draw 2340ms linear 256ms forwards;}.miNHxvKv_27{stroke-dasharray:110 112;stroke-dashoffset:111;animation:miNHxvKv_draw 2340ms linear 265ms forwards;}.miNHxvKv_28{stroke-dasharray:268 270;stroke-dashoffset:269;animation:miNHxvKv_draw 2340ms linear 275ms forwards;}.miNHxvKv_29{stroke-dasharray:267 269;stroke-dashoffset:268;animation:miNHxvKv_draw 2340ms linear 285ms forwards;}.miNHxvKv_30{stroke-dasharray:267 269;stroke-dashoffset:268;animation:miNHxvKv_draw 2340ms linear 295ms forwards;}.miNHxvKv_31{stroke-dasharray:267 269;stroke-dashoffset:268;animation:miNHxvKv_draw 2340ms linear 305ms forwards;}.miNHxvKv_32{stroke-dasharray:267 269;stroke-dashoffset:268;animation:miNHxvKv_draw 2340ms linear 315ms forwards;}.miNHxvKv_33{stroke-dasharray:328 330;stroke-dashoffset:329;animation:miNHxvKv_draw 2340ms linear 325ms forwards;}.miNHxvKv_34{stroke-dasharray:73 75;stroke-dashoffset:74;animation:miNHxvKv_draw 2340ms linear 334ms forwards;}.miNHxvKv_35{stroke-dasharray:251 253;stroke-dashoffset:252;animation:miNHxvKv_draw 2340ms linear 344ms forwards;}.miNHxvKv_36{stroke-dasharray:75 77;stroke-dashoffset:76;animation:miNHxvKv_draw 2340ms linear 354ms forwards;}.miNHxvKv_37{stroke-dasharray:67 69;stroke-dashoffset:68;animation:miNHxvKv_draw 2340ms linear 364ms forwards;}.miNHxvKv_38{stroke-dasharray:42 44;stroke-dashoffset:43;animation:miNHxvKv_draw 2340ms linear 374ms forwards;}.miNHxvKv_39{stroke-dasharray:42 44;stroke-dashoffset:43;animation:miNHxvKv_draw 2340ms linear 384ms forwards;}.miNHxvKv_40{stroke-dasharray:139 141;stroke-dashoffset:140;animation:miNHxvKv_draw 2340ms linear 394ms forwards;}.miNHxvKv_41{stroke-dasharray:139 141;stroke-dashoffset:140;animation:miNHxvKv_draw 2340ms linear 403ms forwards;}.miNHxvKv_42{stroke-dasharray:42 44;stroke-dashoffset:43;animation:miNHxvKv_draw 2340ms linear 413ms forwards;}.miNHxvKv_43{stroke-dasharray:42 44;stroke-dashoffset:43;animation:miNHxvKv_draw 2340ms linear 423ms forwards;}.miNHxvKv_44{stroke-dasharray:139 141;stroke-dashoffset:140;animation:miNHxvKv_draw 2340ms linear 433ms forwards;}.miNHxvKv_45{stroke-dasharray:139 141;stroke-dashoffset:140;animation:miNHxvKv_draw 2340ms linear 443ms forwards;}.miNHxvKv_46{stroke-dasharray:207 209;stroke-dashoffset:208;animation:miNHxvKv_draw 2340ms linear 453ms forwards;}.miNHxvKv_47{stroke-dasharray:301 303;stroke-dashoffset:302;animation:miNHxvKv_draw 2340ms linear 462ms forwards;}.miNHxvKv_48{stroke-dasharray:354 356;stroke-dashoffset:355;animation:miNHxvKv_draw 2340ms linear 472ms forwards;}.miNHxvKv_49{stroke-dasharray:130 132;stroke-dashoffset:131;animation:miNHxvKv_draw 2340ms linear 482ms forwards;}.miNHxvKv_50{stroke-dasharray:514 516;stroke-dashoffset:515;animation:miNHxvKv_draw 2340ms linear 492ms forwards;}.miNHxvKv_51{stroke-dasharray:499 501;stroke-dashoffset:500;animation:miNHxvKv_draw 2340ms linear 502ms forwards;}.miNHxvKv_52{stroke-dasharray:362 364;stroke-dashoffset:363;animation:miNHxvKv_draw 2340ms linear 512ms forwards;}.miNHxvKv_53{stroke-dasharray:196 198;stroke-dashoffset:197;animation:miNHxvKv_draw 2340ms linear 522ms forwards;}.miNHxvKv_54{stroke-dasharray:266 268;stroke-dashoffset:267;animation:miNHxvKv_draw 2340ms linear 531ms forwards;}.miNHxvKv_55{stroke-dasharray:320 322;stroke-dashoffset:321;animation:miNHxvKv_draw 2340ms linear 541ms forwards;}.miNHxvKv_56{stroke-dasharray:380 382;stroke-dashoffset:381;animation:miNHxvKv_draw 2340ms linear 551ms forwards;}.miNHxvKv_57{stroke-dasharray:451 453;stroke-dashoffset:452;animation:miNHxvKv_draw 2340ms linear 561ms forwards;}.miNHxvKv_58{stroke-dasharray:268 270;stroke-dashoffset:269;animation:miNHxvKv_draw 2340ms linear 571ms forwards;}.miNHxvKv_59{stroke-dasharray:102 104;stroke-dashoffset:103;animation:miNHxvKv_draw 2340ms linear 581ms forwards;}.miNHxvKv_60{stroke-dasharray:102 104;stroke-dashoffset:103;animation:miNHxvKv_draw 2340ms linear 591ms forwards;}.miNHxvKv_61{stroke-dasharray:267 269;stroke-dashoffset:268;animation:miNHxvKv_draw 2340ms linear 600ms forwards;}.miNHxvKv_62{stroke-dasharray:267 269;stroke-dashoffset:268;animation:miNHxvKv_draw 2340ms linear 610ms forwards;}.miNHxvKv_63{stroke-dasharray:49 51;stroke-dashoffset:50;animation:miNHxvKv_draw 2340ms linear 620ms forwards;}.miNHxvKv_64{stroke-dasharray:224 226;stroke-dashoffset:225;animation:miNHxvKv_draw 2340ms linear 630ms forwards;}.miNHxvKv_65{stroke-dasharray:75 77;stroke-dashoffset:76;animation:miNHxvKv_draw 2340ms linear 640ms forwards;}.miNHxvKv_66{stroke-dasharray:67 69;stroke-dashoffset:68;animation:miNHxvKv_draw 2340ms linear 650ms forwards;}.miNHxvKv_67{stroke-dasharray:267 269;stroke-dashoffset:268;animation:miNHxvKv_draw 2340ms linear 659ms forwards;}@keyframes miNHxvKv_draw{100%{stroke-dashoffset:0;}}@keyframes miNHxvKv_fade{0%{stroke-opacity:1;}94.44444444444444%{stroke-opacity:1;}100%{stroke-opacity:0;}}</style></svg>
