<?xml version="1.0" encoding="utf-8"?>
<!-- Generator: Adobe Illustrator 25.0.1, SVG Export Plug-In . SVG Version: 6.00 Build 0)  -->
<svg version="1.1" id="Livello_1" xmlns="http://www.w3.org/2000/svg" xmlns:xlink="http://www.w3.org/1999/xlink" x="0px" y="0px"
	 viewBox="0 0 560.4 421.1" style="enable-background:new 0 0 560.4 421.1;" xml:space="preserve">
<style type="text/css">
	.st0{fill:#FFFFFF;}
	.st1{fill:#D7E2FF;}
	.st2{fill:#97ABFF;}
	.st3{fill:#FFFFFF;stroke:#4964F5;stroke-width:3.3497;stroke-linecap:round;stroke-miterlimit:10;}
	.st4{fill:none;stroke:#4964F5;stroke-width:3.3497;stroke-linecap:round;stroke-miterlimit:10;}
	.st5{clip-path:url(#SVGID_2_);fill:#97ABFF;}
	.st6{clip-path:url(#SVGID_4_);fill:#97ABFF;}
	.st7{fill:#97ABFF;stroke:#4964F5;stroke-width:2.1;stroke-linecap:round;stroke-miterlimit:10;}
	.st8{fill:none;stroke:#4964F5;stroke-width:2.1;stroke-linecap:round;stroke-miterlimit:10;}
	.st9{fill:#97ABFF;stroke:#4964F5;stroke-width:3.3497;stroke-linecap:round;stroke-miterlimit:10;}
	.st10{fill:#FFFFFF;stroke:#4964F5;stroke-width:3.1252;stroke-linecap:round;stroke-miterlimit:10;}
	.st11{fill:#4964F5;}
	.st12{font-family:'GillSans';}
	.st13{font-size:8.7885px;}
</style>
<g id="Livello_11">
</g>
<g id="Livello_2_1_">
	<path class="st0" d="M199.3,287.7c0,0,62.6-36.6,95-27.6s58.4,22.8,58.4,22.8l42.5,41.4l6.4,18l-73.3,11.1l-20.2,4.2l-37.7-3.2
		L199.3,287.7z"/>
	<path class="st1" d="M111.7,293l-5.2,11.1l81.6,82.8l3.2,2l144.9-21.5l4-4l0.4-10.8l3.6-1.6l7.6,8l8,5.6l131.8-25.5l2-14.3
		c0,0-21.5,9.2-57.3-2c-35.8-11.1-58.5-13.1-82.8,16.7l-4.4,9.2c0,0-9.2,2-13.9,1.6c0,0-6.4-6-31.1-9.2s-62.5,18.7-79.6,23.5
		s-31.9,8.8-31.9,8.8L111.7,293z"/>
	<path class="st2" d="M493.1,333.7l11.9,8.4l-0.4,8.8L368.4,382l2,7.6l-35.4,7.2l-0.4-4.8l-0.8-3.2l-151.7,22.3L89.7,310.8l3.2-9.2
		l13.9-2.8l-0.4,5.5l84.5,84.9l143.3-20.9c0,0,5.1-1.5,6-5s-1-13.3,3.1-12.2c4.1,1.1,13.2,13.8,13.2,13.8l24.7-5.6L492,338.7
		L493.1,333.7"/>
	<path class="st3" d="M353.4,339.7c0,0,20.6-30.9,54.6-23.7c34,7.2,58.2,19,85,8.8v-0.1l-46.8-31.4l-69.1-44.8"/>
	<path class="st3" d="M335.8,350c-13.4-9.8-46.4-12.9-77.3,1c-26.1,11.7-55,20.2-63.5,22.5c-1.5,0.4-3.1,0-4.2-1.1L110.9,292
		c-0.3-0.3-0.1-0.8,0.3-0.8c11.5,0,30.8-14,30.8-14s35.6-32,77.8-27.8"/>
	<path class="st4" d="M192.5,374.8l-4,10.9c-0.9,1.7,0.5,3.7,2.4,3.4l143.3-20.9c4.2-0.6,7.2-4.3,6.9-8.6c-0.3-4.5-0.1-9.3,2.2-8.7
		c2.6,0.7,6.6,5.6,9.2,9.3c1.8,2.5,5,3.8,8.1,3.2L492,338.7l1-13.9"/>
	<polyline class="st4" points="110.9,292.1 106.5,304.1 187.9,388.2 	"/>
	<path class="st4" d="M492.8,333.4l12.4,9v0.1l-143.5,30.8c-1.1,0.2-1.6,1.5-1.1,2.4l2.4,4.3c0.4,0.7,0,1.6-0.8,1.7l-22.7,4.1
		c-0.8,0.1-1.5-0.5-1.4-1.3l0.6-4.3c0.2-1.1-0.8-2-1.9-1.9l-153,23.3c-1.6,0.2-3.1-0.3-4.2-1.5l-88-98.1c-0.3-0.4-0.1-1,0.4-1.1
		l15.8-2.2"/>
	<path class="st4" d="M505.2,342.4l-0.7,8.3l-134.8,30.7c-1.1,0.2-1.6,1.5-1.1,2.4l2.4,4.3c0.4,0.7,0,1.6-0.8,1.7l-34,6
		c-0.8,0.1-1.5-0.5-1.4-1.3l0.6-4.3c0.2-1.1-0.8-2-1.9-1.9l-149.7,22.4c-1.6,0.2-3.1-0.3-4.2-1.5l-88-98.1c-0.3-0.4,0-9.3,0-9.3"/>
</g>
<g id="page1">
	<path class="st3" d="M238.9,243.3c-13.9-13.9-41.8-9.8-57.2-4.1c-15.3,5.6-48.1,19.7-72.7,9.7c-0.2-0.1-0.3,0.2-0.2,0.3l97.6,83.3
		c0,0,66-23.2,130.9,12.4"/>
</g>
<g id="page2">
	<path class="st3" d="M349.2,348.5c9.8-30.4,26.3-40.7,60.3-42.8c34-2.1,42.8-23.2,42.8-23.2l-53.6-36.1l-54.6-38.7
		c0,0-3.1,15.5-23.2,32.5s-12.4,48.5-12.4,48.5"/>
</g>
<g id="page3_1_">
	<path class="st3" d="M345.6,343.8c0,0-1.5-25.8,25.8-47.4c22.7-18,27.6-47,28.6-56.3c0.2-1.8-0.6-3.6-2.1-4.6L314,178.3
		c-0.6-0.4-1.4,0-1.5,0.7c-1.4,12.5-17.4,31.4-17.4,31.4s-24.7,25.3-8.8,53.6"/>
</g>
<g id="page4">
	<path class="st3" d="M266.3,248c0,0-29.6-71.7-37.1-86.2c-0.3-0.5,0.4-1.1,0.8-0.7l82.6,62.5c0.1,0.1,0.2,0.2,0.2,0.3
		c1.4,4.1,29.3,84.7,28.3,116.8"/>
</g>
<g id="page5">
	<path class="st3" d="M282.7,264.4c0,0-29.4-34-62.4-48.5c-29.9-13.1-61.5-19-67.2-20c-0.2,0-0.3,0.2-0.2,0.4l97.7,71.6
		c0,0,64.4,34,81.4,69.1"/>
</g>
<g id="img">
	<g>
		<path class="st2" d="M219,97.1h62.7c1.4,0,2.5-1.1,2.5-2.5V61.7V31.9c0-1.4-1.1-2.5-2.5-2.5H219c-1.4,0-2.5,1.1-2.5,2.5v62.7
			C216.5,96,217.6,97.1,219,97.1z"/>
		<g>
			<g>
				<path id="XMLID_2_" class="st0" d="M210.8,90.5h62.7c1.4,0,2.5-1.1,2.5-2.5V55.1V25.3c0-1.4-1.1-2.5-2.5-2.5h-62.7
					c-1.4,0-2.5,1.1-2.5,2.5V88C208.2,89.3,209.4,90.5,210.8,90.5z"/>
			</g>
			<g>
				<defs>
					<path id="SVGID_1_" d="M210.8,90.5h62.7c1.4,0,2.5-1.1,2.5-2.5V55.1V25.3c0-1.4-1.1-2.5-2.5-2.5h-62.7c-1.4,0-2.5,1.1-2.5,2.5
						V88C208.2,89.3,209.4,90.5,210.8,90.5z"/>
				</defs>
				<clipPath id="SVGID_2_">
					<use xlink:href="#SVGID_1_"  style="overflow:visible;"/>
				</clipPath>
				<path class="st5" d="M203.4,68.8c0,0,19.7-20.9,28.7-14.9s16.1,15.1,20.7,13.3c4.6-1.8,22.5-7.8,23.1-7.8s10.4,9.6,10.4,9.6
					l-9,35.2l-30.3,5.4l-67.9-8.6l5-13.5L203.4,68.8z"/>
			</g>
			<g>
				<defs>
					<path id="SVGID_3_" d="M210.8,90.5h62.7c1.4,0,2.5-1.1,2.5-2.5V55.1V25.3c0-1.4-1.1-2.5-2.5-2.5h-62.7c-1.4,0-2.5,1.1-2.5,2.5
						V88C208.2,89.3,209.4,90.5,210.8,90.5z"/>
				</defs>
				<clipPath id="SVGID_4_">
					<use xlink:href="#SVGID_3_"  style="overflow:visible;"/>
				</clipPath>
				<circle class="st6" cx="254.2" cy="42.7" r="6.2"/>
			</g>
			<g>
				<path id="XMLID_1_" class="st4" d="M210.8,90.5h62.7c1.4,0,2.5-1.1,2.5-2.5V55.1V25.3c0-1.4-1.1-2.5-2.5-2.5h-62.7
					c-1.4,0-2.5,1.1-2.5,2.5V88C208.2,89.3,209.4,90.5,210.8,90.5z"/>
			</g>
		</g>
	</g>
</g>
<g id="card">
	<g>
		<path class="st2" d="M157.1,151.1H51.3c-2.4,0-4.3-1.9-4.3-4.3V91.3V40.9c0-2.4,1.9-4.3,4.3-4.3h105.8c2.4,0,4.3,1.9,4.3,4.3
			v105.8C161.4,149.1,159.5,151.1,157.1,151.1z"/>
		<path class="st3" d="M171.1,139.9H65.3c-2.4,0-4.3-1.9-4.3-4.3V80.1V29.7c0-2.4,1.9-4.3,4.3-4.3h105.8c2.4,0,4.3,1.9,4.3,4.3
			v105.8C175.4,137.9,173.5,139.9,171.1,139.9z"/>
		<circle class="st2" cx="85.2" cy="60.7" r="14.9"/>
		<rect x="104" y="54.2" class="st2" width="52.2" height="8.4"/>
		<rect x="104" y="65.4" class="st2" width="45.9" height="8.9"/>
		<rect x="71.9" y="87.7" class="st7" width="92.6" height="41.2"/>
		<line class="st8" x1="164.5" y1="87.7" x2="71.9" y2="128.9"/>
		<line class="st8" x1="71.9" y1="87.7" x2="164.5" y2="128.9"/>
	</g>
</g>
<g id="postit2">
	<g>
		<path class="st2" d="M65.2,183.4c0,0-2,55.6,23.8,59.7c0.5,0.1,0.5,0.8,0,0.9l-63.1,14.8c0,0-25.5-34.5-19.6-67.4L65.2,183.4z"/>
		<path class="st3" d="M71.6,173.5c0,0-2,55.6,23.8,59.7c0.5,0.1,0.5,0.8,0,0.9l-63.1,14.8c0,0-25.5-34.5-19.6-67.4L71.6,173.5z"/>
		<polygon class="st2" points="35.3,188.7 51.5,186.6 51.5,162.7 34.5,164.2 		"/>
	</g>
</g>
<g id="postit1">
	<g>
		<path class="st2" d="M348.8,80.4c0,0,2,55.6-23.8,59.7c-0.5,0.1-0.5,0.8,0,0.9l63.1,14.8c0,0,25.5-34.5,19.6-67.4L348.8,80.4z"/>
		<path class="st3" d="M342.4,70.5c0,0,2,55.6-23.8,59.7c-0.5,0.1-0.5,0.8,0,0.9l63.1,14.8c0,0,25.5-34.5,19.6-67.4L342.4,70.5z"/>
		<polygon class="st2" points="378.7,85.7 362.5,83.6 362.5,59.7 379.5,61.2 		"/>
	</g>
</g>
<g id="pencil">
	<g>
		<path class="st2" d="M496,78.5l3.3,2.5l-61.1,80c-0.1,0.1-0.1,0.3,0.1,0.4l0.5,0.4c-0.5-0.1-1.1,0.2-1.2,0.8l-2.7,20.1
			c0,0.7,0.7,1.3,1.3,1l18.7-7.9c0.5-0.2,0.7-0.9,0.5-1.4l0.5,0.4c0.1,0.1,0.3,0.1,0.4-0.1l61.1-80l3.6,2.7l3.7-4.8l-3.4-2.6
			l6.3-8.2c1.7-2.2,1.3-5.4-1-7.1l-9.9-7.6c-2.2-1.7-5.4-1.3-7.1,1l-6.3,8.2l-3.4-2.6L496,78.5L496,78.5z"/>
		<g>
			<path class="st9" d="M507.7,67.2l9.9,7.6c2.2,1.7,2.7,4.9,1,7.1l-6.4,8.4l-18-13.8l6.4-8.4C502.2,65.9,505.4,65.5,507.7,67.2z"/>
			<path class="st3" d="M509.5,93.9l-61.8,81c-0.1,0.1-0.3,0.2-0.4,0.1l-17.7-13.5c-0.1-0.1-0.2-0.3-0.1-0.4l61.8-81
				c0.1-0.1,0.3-0.2,0.4-0.1l17.7,13.5C509.6,93.7,509.6,93.8,509.5,93.9z"/>
			
				<rect x="498.5" y="70.1" transform="matrix(0.6069 -0.7948 0.7948 0.6069 129.0343 432.3014)" class="st3" width="6.1" height="31.3"/>
			<path class="st10" d="M426.3,182.8l2.7-20.1c0-0.7,0.9-1.1,1.5-0.6l16.1,12.3c0.6,0.4,0.5,1.4-0.2,1.6l-18.7,7.9
				C427,184.1,426.2,183.5,426.3,182.8z"/>
		</g>
	</g>
</g>
<g id="arrow2">
	<g>
		<g>
			<polygon class="st2" points="335.4,16.8 341.9,18.6 348.3,20.5 341.5,23.1 338.6,29.8 337,23.3 			"/>
			<polygon class="st11" points="335.4,13.3 341.8,15.2 348.3,17.1 341.4,19.6 338.6,26.4 337,19.9 			"/>
		</g>
		<path class="st2" d="M410.2,28.8h-48.6c-3.6,0-6.6-2.9-6.6-6.6l0,0c0-3.6,2.9-6.6,6.6-6.6h48.6c3.6,0,6.6,2.9,6.6,6.6l0,0
			C416.8,25.8,413.9,28.8,410.2,28.8z"/>
		<path class="st11" d="M410.5,26h-48.6c-3.6,0-6.6-2.9-6.6-6.6l0,0c0-3.6,2.9-6.6,6.6-6.6h48.6c3.6,0,6.6,2.9,6.6,6.6l0,0
			C417,23.1,414.1,26,410.5,26z"/>
		<text transform="matrix(1 0 0 1 377.547 22.313)" class="st0 st12 st13">TOM</text>
	</g>
</g>
<g id="Livello_9">
	<g>
		<g>
			<polygon class="st2" points="467,231.6 473.5,233.5 479.9,235.4 473.1,237.9 470.2,244.7 468.6,238.1 			"/>
			<polygon class="st11" points="467,228.2 473.4,230 479.9,231.9 473,234.5 470.2,241.2 468.6,234.7 			"/>
		</g>
		<path class="st2" d="M541.8,243.6h-48.6c-3.6,0-6.6-2.9-6.6-6.6l0,0c0-3.6,2.9-6.6,6.6-6.6h48.6c3.6,0,6.6,2.9,6.6,6.6l0,0
			C548.4,240.7,545.5,243.6,541.8,243.6z"/>
		<path class="st11" d="M542.1,240.8h-48.6c-3.6,0-6.6-2.9-6.6-6.6l0,0c0-3.6,2.9-6.6,6.6-6.6h48.6c3.6,0,6.6,2.9,6.6,6.6l0,0
			C548.6,237.9,545.7,240.8,542.1,240.8z"/>
		<text transform="matrix(1 0 0 1 508.6705 237.4902)" class="st0 st12 st13">LARA</text>
	</g>
</g>
</svg>
