<svg xmlns="http://www.w3.org/2000/svg" width="244" height="244" viewBox="0 0 244 244">
  <g id="Raggruppa_39" data-name="Raggruppa 39" transform="translate(-504 -2949)">
    <g id="Tracciato_7" data-name="Tracciato 7" transform="translate(504 2949)" fill="none">
      <path d="M122,0A122,122,0,1,1,0,122,122,122,0,0,1,122,0Z" stroke="none"/>
      <path d="M 122 2 C 113.8568267822266 2 105.7194061279297 2.820266723632812 97.81370544433594 4.438003540039062 C 90.10993957519531 6.014434814453125 82.53227233886719 8.366668701171875 75.29119873046875 11.42936706542969 C 68.18113708496094 14.43666076660156 61.32333374023438 18.15899658203125 54.90826416015625 22.49293518066406 C 48.55363464355469 26.78602600097656 42.57792663574219 31.7164306640625 37.14720153808594 37.14720153808594 C 31.7164306640625 42.57792663574219 26.78602600097656 48.55363464355469 22.49293518066406 54.90826416015625 C 18.15899658203125 61.32333374023438 14.43666076660156 68.18113708496094 11.42936706542969 75.29119873046875 C 8.366668701171875 82.53227233886719 6.014434814453125 90.10993957519531 4.438003540039062 97.81370544433594 C 2.820266723632812 105.7194061279297 2 113.8568267822266 2 122 C 2 130.1431579589844 2.820266723632812 138.2806091308594 4.438003540039062 146.1863098144531 C 6.014434814453125 153.8900756835938 8.366668701171875 161.4677429199219 11.42936706542969 168.7088012695312 C 14.43666076660156 175.8188629150391 18.15899658203125 182.6766662597656 22.49293518066406 189.0917358398438 C 26.78602600097656 195.4463653564453 31.7164306640625 201.4220581054688 37.14720153808594 206.8527984619141 C 42.57792663574219 212.2835693359375 48.55363464355469 217.2139587402344 54.90826416015625 221.5070648193359 C 61.32333374023438 225.8410034179688 68.18113708496094 229.5633392333984 75.29119873046875 232.5706329345703 C 82.53227233886719 235.6333312988281 90.10993957519531 237.9855651855469 97.81370544433594 239.5619964599609 C 105.7194061279297 241.1797332763672 113.8568267822266 242 122 242 C 130.1431579589844 242 138.2806091308594 241.1797332763672 146.1863098144531 239.5619964599609 C 153.8900756835938 237.9855651855469 161.4677429199219 235.6333312988281 168.7088012695312 232.5706329345703 C 175.8188629150391 229.5633392333984 182.6766662597656 225.8410034179688 189.0917358398438 221.5070648193359 C 195.4463653564453 217.2139587402344 201.4220581054688 212.2835693359375 206.8527984619141 206.8527984619141 C 212.2835693359375 201.4220581054688 217.2139587402344 195.4463653564453 221.5070648193359 189.0917358398438 C 225.8410034179688 182.6766662597656 229.5633392333984 175.8188629150391 232.5706329345703 168.7088012695312 C 235.6333312988281 161.4677429199219 237.9855651855469 153.8900756835938 239.5619964599609 146.1863098144531 C 241.1797332763672 138.2806091308594 242 130.1431579589844 242 122 C 242 113.8568267822266 241.1797332763672 105.7194061279297 239.5619964599609 97.81370544433594 C 237.9855651855469 90.10993957519531 235.6333312988281 82.53227233886719 232.5706329345703 75.29119873046875 C 229.5633392333984 68.18113708496094 225.8410034179688 61.32333374023438 221.5070648193359 54.90826416015625 C 217.2139587402344 48.55363464355469 212.2835693359375 42.57792663574219 206.8527984619141 37.14720153808594 C 201.4220581054688 31.7164306640625 195.4463653564453 26.78602600097656 189.0917358398438 22.49293518066406 C 182.6766662597656 18.15899658203125 175.8188629150391 14.43666076660156 168.7088012695312 11.42936706542969 C 161.4677429199219 8.366668701171875 153.8900756835938 6.014434814453125 146.1863098144531 4.438003540039062 C 138.2806091308594 2.820266723632812 130.1431579589844 2 122 2 M 122 0 C 189.3787384033203 0 244 54.62126159667969 244 122 C 244 189.3787384033203 189.3787384033203 244 122 244 C 54.62126159667969 244 0 189.3787384033203 0 122 C 0 54.62126159667969 54.62126159667969 0 122 0 Z" stroke="none" fill="#fff"/>
    </g>
    <g id="Ellisse_104" data-name="Ellisse 104" transform="translate(707 3129)" fill="none" stroke="#fff" stroke-width="2">
      <circle cx="14" cy="14" r="14" stroke="none"/>
      <circle cx="14" cy="14" r="13" fill="none"/>
    </g>
    <g id="Raggruppa_38" data-name="Raggruppa 38" transform="translate(-2778.811 2593.813)">
      <path id="Tracciato_127" data-name="Tracciato 127" d="M3436.324,437.74s19.075,27.981,41.51,32.469-.636,58.955-81.748,43.769S3436.324,437.74,3436.324,437.74Z" transform="translate(19.653 17.429)" fill="#7b94ff"/>
      <path id="Tracciato_128" data-name="Tracciato 128" d="M3421.114,489.026l-74.807-10.26,14.831-44.853,14.107-21.7s14.469-11.576,15.553-11.937,17.363-7.6,17.363-7.6l12.66,1.807,12.3,12.66v11.214s2.171,18.447,5.427,22.788a27.817,27.817,0,0,1,4.341,10.128l-5.065,17.362Z" transform="translate(13.092 3.894)" fill="#fff"/>
      <path id="Tracciato_129" data-name="Tracciato 129" d="M3315.831,470.973c-10.026,11.364-22.523,32.167-2.266,50.853a47.518,47.518,0,0,0,23.962,11.669l41.972,1.018s.157.6,6.669-6.638c0,0,1.448-48.744-1.083-51.278l-12.662-3.7-6.511-7.6,2.894-13.927,7.958-4.883,3.617-.724s11.938,4.7,21.7-8.681,27.13-36.534,27.13-36.534h0a20.439,20.439,0,0,0,20.095,21.163c6.072.112,11.64-.268,13.722-1.794,0,0-7.049-39.986-43.945-36.37a42.293,42.293,0,0,0-43.045,4.7c-20.346,14.92-18.12,59.726-45.481,72.123A43.216,43.216,0,0,0,3315.831,470.973Z" fill="#7b94ff"/>
      <path id="Tracciato_130" data-name="Tracciato 130" d="M3404.077,471.846V501.53c12.1,2.841,28.992,15.295,28.992,21.4,0,9.09-10.526,11.78-32.8,11.78s-40.332-7.368-40.332-16.457c0-3.766,3.105-7.234,8.32-10.008V453.9" transform="translate(17.186 22.282)" fill="#fff" stroke="#4964f5" stroke-linecap="round" stroke-miterlimit="10" stroke-width="3.144"/>
      <path id="Tracciato_131" data-name="Tracciato 131" d="M3374.652,457.287a14.828,14.828,0,1,1-3.013-25.613" transform="translate(14.512 15.257)" fill="none" stroke="#4964f5" stroke-linecap="round" stroke-miterlimit="10" stroke-width="3.144"/>
      <path id="Tracciato_132" data-name="Tracciato 132" d="M3397.269,452.545a24.6,24.6,0,0,0,10.6.462" transform="translate(28.399 21.876)" fill="none" stroke="#4964f5" stroke-linecap="round" stroke-miterlimit="10" stroke-width="3.144"/>
      <path id="Tracciato_133" data-name="Tracciato 133" d="M3356.877,436.071s1.033,7.4,11.49,6.755a.253.253,0,0,1,.186.443c-1.372,1.169-4.506,4.135-4.08,6.546" transform="translate(16.267 16.928)" fill="none" stroke="#4964f5" stroke-linecap="round" stroke-miterlimit="10" stroke-width="3.144"/>
      <path id="Tracciato_134" data-name="Tracciato 134" d="M3364.417,465.458s8.976,15.533,49.359,18.639c0,0,23.47-11.736,24.507-42.11s.691-30.029.691-30.029" transform="translate(18.531 9.686)" fill="none" stroke="#4964f5" stroke-linecap="round" stroke-miterlimit="10" stroke-width="3.144"/>
      <ellipse id="Ellisse_116" data-name="Ellisse 116" cx="13.979" cy="20.192" rx="13.979" ry="20.192" transform="translate(3398.481 417.847)" fill="#d2ddff" stroke="#4964f5" stroke-linecap="round" stroke-miterlimit="10" stroke-width="3.144"/>
      <ellipse id="Ellisse_117" data-name="Ellisse 117" cx="13.979" cy="20.192" rx="13.979" ry="20.192" transform="translate(3435.759 417.847)" fill="#d2ddff" stroke="#4964f5" stroke-linecap="round" stroke-miterlimit="10" stroke-width="3.144"/>
      <path id="Tracciato_135" data-name="Tracciato 135" d="M3396.535,428.165a6.385,6.385,0,0,1,12.771,0" transform="translate(28.178 12.635)" fill="none" stroke="#4964f5" stroke-linecap="round" stroke-miterlimit="10" stroke-width="3.144"/>
      <path id="Tracciato_136" data-name="Tracciato 136" d="M3303.1,416.073" transform="translate(0.115 10.921)" fill="none" stroke="#4964f5" stroke-linecap="round" stroke-miterlimit="10" stroke-width="0.1"/>
      <path id="Tracciato_137" data-name="Tracciato 137" d="M3400.517,445.524s7.593-1.38,7.421-3.969" transform="translate(29.374 18.575)" fill="none" stroke="#4964f5" stroke-linecap="round" stroke-miterlimit="10" stroke-width="3.144"/>
    </g>
  </g>
</svg>
