<?xml version="1.0" encoding="utf-8"?>
<!-- Generator: Adobe Illustrator 25.0.1, SVG Export Plug-In . SVG Version: 6.00 Build 0)  -->
<svg version="1.1" id="Livello_1" xmlns="http://www.w3.org/2000/svg" xmlns:xlink="http://www.w3.org/1999/xlink" x="0px" y="0px"
	 viewBox="0 0 1920 1080" style="enable-background:new 0 0 1920 1080;" xml:space="preserve">
<style type="text/css">
	.st0{fill:#4261FD;}
	.st1{fill:#91A9FF;}
	.st2{opacity:0.61;fill:#4261FD;}
	.st3{opacity:0.61;fill:#91A9FF;}
</style>
<g>
	<path class="st0" d="M235.7,851.6c0,1.3-1,2.3-2.3,2.3c-1.3,0-2.3-1-2.3-2.3c0-1.3,1-2.3,2.3-2.3
		C234.6,849.4,235.7,850.4,235.7,851.6z"/>
	<path class="st0" d="M249.1,851.6c0,1.3-1,2.3-2.3,2.3c-1.3,0-2.3-1-2.3-2.3c0-1.3,1-2.3,2.3-2.3
		C248.1,849.4,249.1,850.4,249.1,851.6z"/>
	<path class="st0" d="M262.6,851.6c0,1.3-1,2.3-2.3,2.3c-1.3,0-2.3-1-2.3-2.3c0-1.3,1-2.3,2.3-2.3
		C261.6,849.4,262.6,850.4,262.6,851.6z"/>
	<path class="st0" d="M235.7,861c0,1.3-1,2.3-2.3,2.3c-1.3,0-2.3-1-2.3-2.3c0-1.3,1-2.3,2.3-2.3C234.6,858.7,235.7,859.7,235.7,861z
		"/>
	<path class="st0" d="M249.1,861c0,1.3-1,2.3-2.3,2.3c-1.3,0-2.3-1-2.3-2.3c0-1.3,1-2.3,2.3-2.3C248.1,858.7,249.1,859.7,249.1,861z
		"/>
	<path class="st0" d="M262.6,861c0,1.3-1,2.3-2.3,2.3c-1.3,0-2.3-1-2.3-2.3c0-1.3,1-2.3,2.3-2.3C261.6,858.7,262.6,859.7,262.6,861z
		"/>
	<path class="st0" d="M235.7,870.4c0,1.3-1,2.3-2.3,2.3c-1.3,0-2.3-1-2.3-2.3c0-1.3,1-2.3,2.3-2.3
		C234.6,868.1,235.7,869.1,235.7,870.4z"/>
	<path class="st0" d="M249.1,870.4c0,1.3-1,2.3-2.3,2.3c-1.3,0-2.3-1-2.3-2.3c0-1.3,1-2.3,2.3-2.3
		C248.1,868.1,249.1,869.1,249.1,870.4z"/>
	<path class="st0" d="M262.6,870.4c0,1.3-1,2.3-2.3,2.3c-1.3,0-2.3-1-2.3-2.3c0-1.3,1-2.3,2.3-2.3
		C261.6,868.1,262.6,869.1,262.6,870.4z"/>
	<path class="st0" d="M235.7,879.7c0,1.3-1,2.3-2.3,2.3c-1.3,0-2.3-1-2.3-2.3c0-1.3,1-2.3,2.3-2.3
		C234.6,877.4,235.7,878.5,235.7,879.7z"/>
	<path class="st0" d="M249.1,879.7c0,1.3-1,2.3-2.3,2.3c-1.3,0-2.3-1-2.3-2.3c0-1.3,1-2.3,2.3-2.3
		C248.1,877.4,249.1,878.5,249.1,879.7z"/>
	<path class="st0" d="M262.6,879.7c0,1.3-1,2.3-2.3,2.3c-1.3,0-2.3-1-2.3-2.3c0-1.3,1-2.3,2.3-2.3
		C261.6,877.4,262.6,878.5,262.6,879.7z"/>
</g>
<path class="st0" d="M609.6,933.6c-2.1,2.1-5.5,2.1-7.6,0c-2.1-2.1-2.1-5.5,0-7.6c2.1-2.1,5.5-2.1,7.6,0
	C611.7,928.1,611.7,931.5,609.6,933.6z"/>
<path class="st0" d="M571.8,926.8c-2.1,2.1-5.5,2.1-7.6,0c-2.1-2.1-2.1-5.5,0-7.6c2.1-2.1,5.5-2.1,7.6,0
	C573.9,921.3,573.9,924.7,571.8,926.8z"/>
<path class="st0" d="M594.1,949.1c-2.1,2.1-5.5,2.1-7.6,0c-2.1-2.1-2.1-5.5,0-7.6c2.1-2.1,5.5-2.1,7.6,0
	C596.2,943.7,596.2,947,594.1,949.1z"/>
<path class="st0" d="M616.4,971.5c-2.1,2.1-5.5,2.1-7.6,0c-2.1-2.1-2.1-5.5,0-7.6c2.1-2.1,5.5-2.1,7.6,0
	C618.5,966,618.5,969.4,616.4,971.5z"/>
<circle class="st0" cx="552.5" cy="938.5" r="5.4"/>
<ellipse class="st0" cx="574.8" cy="960.9" rx="5.4" ry="5.4"/>
<path class="st0" d="M600.9,987c-2.1,2.1-5.5,2.1-7.6,0c-2.1-2.1-2.1-5.5,0-7.6c2.1-2.1,5.5-2.1,7.6,0
	C603,981.5,603,984.9,600.9,987z"/>
<circle class="st0" cx="559.3" cy="976.4" r="5.4"/>
<path class="st0" d="M26,1024.6l-31.8,55h63.5L26,1024.6z M26,1030l27.1,46.9H-1.1L26,1030z"/>
<polygon class="st1" points="40.1,1067.3 13.1,1061.3 13.7,1058.7 38,1064.1 43.6,1039.1 70.2,1045 75.7,1020 102.8,1026 109,997.9 
	111.7,998.5 104.8,1029.2 77.8,1023.2 72.2,1048.2 45.7,1042.3 "/>
<g>
	<path class="st0" d="M316.2,966.1c0,5.5,4.4,9.9,9.9,9.9c5.5,0,9.9-4.4,9.9-9.9c0-5.5-4.4-9.9-9.9-9.9
		C320.7,956.2,316.2,960.6,316.2,966.1z"/>
</g>
<path class="st0" d="M651.6,1024.6l-31.8,55h63.5L651.6,1024.6z M651.6,1030l27.1,46.9h-54.1L651.6,1030z"/>
<polygon class="st1" points="665.7,1067.3 638.7,1061.3 639.3,1058.7 663.6,1064.1 669.2,1039.1 695.7,1045 701.3,1020 728.3,1026 
	734.6,997.9 737.2,998.5 730.4,1029.2 703.4,1023.2 697.8,1048.2 671.2,1042.3 "/>
<polygon class="st1" points="249,584.8 330.3,620.9 330.3,604.3 249,568.2 "/>
<polygon class="st0" points="246.2,576.9 327.4,613 327.4,596.4 246.2,560.3 "/>
<path class="st0" d="M147.5,787.9c0,7.5-6,13.5-13.5,13.5c-7.5,0-13.5-6-13.5-13.5c0-7.5,6-13.5,13.5-13.5
	C141.4,774.4,147.5,780.5,147.5,787.9z"/>
<path class="st1" d="M415.4,768.5c0,2.9,2.3,5.2,5.2,5.2c2.9,0,5.2-2.3,5.2-5.2s-2.3-5.2-5.2-5.2
	C417.7,763.2,415.4,765.6,415.4,768.5z"/>
<g>
	<path class="st0" d="M235.7,269.7c0,1.3-1,2.3-2.3,2.3c-1.3,0-2.3-1-2.3-2.3c0-1.3,1-2.3,2.3-2.3
		C234.6,267.4,235.7,268.5,235.7,269.7z"/>
	<path class="st0" d="M249.1,269.7c0,1.3-1,2.3-2.3,2.3c-1.3,0-2.3-1-2.3-2.3c0-1.3,1-2.3,2.3-2.3
		C248.1,267.4,249.1,268.5,249.1,269.7z"/>
	<path class="st0" d="M262.6,269.7c0,1.3-1,2.3-2.3,2.3c-1.3,0-2.3-1-2.3-2.3c0-1.3,1-2.3,2.3-2.3
		C261.6,267.4,262.6,268.5,262.6,269.7z"/>
	<path class="st0" d="M235.7,279.1c0,1.3-1,2.3-2.3,2.3c-1.3,0-2.3-1-2.3-2.3c0-1.3,1-2.3,2.3-2.3
		C234.6,276.8,235.7,277.8,235.7,279.1z"/>
	<path class="st0" d="M249.1,279.1c0,1.3-1,2.3-2.3,2.3c-1.3,0-2.3-1-2.3-2.3c0-1.3,1-2.3,2.3-2.3
		C248.1,276.8,249.1,277.8,249.1,279.1z"/>
	<path class="st0" d="M262.6,279.1c0,1.3-1,2.3-2.3,2.3c-1.3,0-2.3-1-2.3-2.3c0-1.3,1-2.3,2.3-2.3
		C261.6,276.8,262.6,277.8,262.6,279.1z"/>
	<path class="st0" d="M235.7,288.4c0,1.3-1,2.3-2.3,2.3c-1.3,0-2.3-1-2.3-2.3c0-1.3,1-2.3,2.3-2.3
		C234.6,286.2,235.7,287.2,235.7,288.4z"/>
	<path class="st0" d="M249.1,288.4c0,1.3-1,2.3-2.3,2.3c-1.3,0-2.3-1-2.3-2.3c0-1.3,1-2.3,2.3-2.3
		C248.1,286.2,249.1,287.2,249.1,288.4z"/>
	<path class="st0" d="M262.6,288.4c0,1.3-1,2.3-2.3,2.3c-1.3,0-2.3-1-2.3-2.3c0-1.3,1-2.3,2.3-2.3
		C261.6,286.2,262.6,287.2,262.6,288.4z"/>
	<path class="st0" d="M235.7,297.8c0,1.3-1,2.3-2.3,2.3c-1.3,0-2.3-1-2.3-2.3c0-1.3,1-2.3,2.3-2.3
		C234.6,295.5,235.7,296.5,235.7,297.8z"/>
	<path class="st0" d="M249.1,297.8c0,1.3-1,2.3-2.3,2.3c-1.3,0-2.3-1-2.3-2.3c0-1.3,1-2.3,2.3-2.3
		C248.1,295.5,249.1,296.5,249.1,297.8z"/>
	<path class="st0" d="M262.6,297.8c0,1.3-1,2.3-2.3,2.3c-1.3,0-2.3-1-2.3-2.3c0-1.3,1-2.3,2.3-2.3
		C261.6,295.5,262.6,296.5,262.6,297.8z"/>
</g>
<path class="st0" d="M26,442.7l-31.8,55h63.5L26,442.7z M26,448.1L53.1,495H-1.1L26,448.1z"/>
<polygon class="st1" points="40.1,485.4 13.1,479.4 13.7,476.7 38,482.1 43.6,457.1 70.2,463 75.7,438 102.8,444.1 109,416 
	111.7,416.6 104.8,447.3 77.8,441.3 72.2,466.3 45.7,460.4 "/>
<g>
	<path class="st0" d="M316.2,384.1c0,5.5,4.4,9.9,9.9,9.9c5.5,0,9.9-4.4,9.9-9.9c0-5.5-4.4-9.9-9.9-9.9
		C320.7,374.3,316.2,378.7,316.2,384.1z"/>
</g>
<path class="st2" d="M147.5,125.6c0,7.5-6,13.5-13.5,13.5c-7.5,0-13.5-6-13.5-13.5c0-7.5,6-13.5,13.5-13.5
	C141.4,112.1,147.5,118.1,147.5,125.6z"/>
<path class="st3" d="M415.4,106.1c0,2.9,2.3,5.2,5.2,5.2c2.9,0,5.2-2.3,5.2-5.2s-2.3-5.2-5.2-5.2
	C417.7,100.9,415.4,103.2,415.4,106.1z"/>
<path class="st2" d="M773,125.6c0,7.5-6,13.5-13.5,13.5s-13.5-6-13.5-13.5c0-7.5,6-13.5,13.5-13.5S773,118.1,773,125.6z"/>
<path class="st3" d="M1040.9,106.1c0,2.9,2.3,5.2,5.2,5.2c2.9,0,5.2-2.3,5.2-5.2s-2.3-5.2-5.2-5.2
	C1043.3,100.9,1040.9,103.2,1040.9,106.1z"/>
<path class="st0" d="M1752.4,940.4c2.1,2.1,5.5,2.1,7.6,0c2.1-2.1,2.1-5.5,0-7.6c-2.1-2.1-5.5-2.1-7.6,0
	C1750.3,934.9,1750.3,938.3,1752.4,940.4z"/>
<path class="st0" d="M1790.2,933.6c2.1,2.1,5.5,2.1,7.6,0c2.1-2.1,2.1-5.5,0-7.6c-2.1-2.1-5.5-2.1-7.6,0
	C1788.2,928.1,1788.2,931.5,1790.2,933.6z"/>
<path class="st0" d="M1767.9,956c2.1,2.1,5.5,2.1,7.6,0c2.1-2.1,2.1-5.5,0-7.6c-2.1-2.1-5.5-2.1-7.6,0
	C1765.8,950.5,1765.8,953.9,1767.9,956z"/>
<path class="st0" d="M1745.6,978.3c2.1,2.1,5.5,2.1,7.6,0c2.1-2.1,2.1-5.5,0-7.6c-2.1-2.1-5.5-2.1-7.6,0
	C1743.5,972.8,1743.5,976.2,1745.6,978.3z"/>
<circle class="st0" cx="1809.6" cy="945.4" r="5.4"/>
<ellipse class="st0" cx="1787.2" cy="967.7" rx="5.4" ry="5.4"/>
<path class="st0" d="M1761.1,993.8c2.1,2.1,5.5,2.1,7.6,0c2.1-2.1,2.1-5.5,0-7.6c-2.1-2.1-5.5-2.1-7.6,0
	C1759,988.3,1759,991.7,1761.1,993.8z"/>
<circle class="st0" cx="1802.8" cy="983.2" r="5.4"/>
<g>
	<path class="st0" d="M1500.8,858.5c0,1.3,1,2.3,2.3,2.3c1.3,0,2.3-1,2.3-2.3c0-1.3-1-2.3-2.3-2.3
		C1501.8,856.2,1500.8,857.2,1500.8,858.5z"/>
	<path class="st0" d="M1487.3,858.5c0,1.3,1,2.3,2.3,2.3c1.3,0,2.3-1,2.3-2.3c0-1.3-1-2.3-2.3-2.3
		C1488.4,856.2,1487.3,857.2,1487.3,858.5z"/>
	<path class="st0" d="M1473.9,858.5c0,1.3,1,2.3,2.3,2.3c1.3,0,2.3-1,2.3-2.3c0-1.3-1-2.3-2.3-2.3
		C1474.9,856.2,1473.9,857.2,1473.9,858.5z"/>
	<path class="st0" d="M1500.8,867.8c0,1.3,1,2.3,2.3,2.3c1.3,0,2.3-1,2.3-2.3c0-1.3-1-2.3-2.3-2.3
		C1501.8,865.5,1500.8,866.6,1500.8,867.8z"/>
	<path class="st0" d="M1487.3,867.8c0,1.3,1,2.3,2.3,2.3c1.3,0,2.3-1,2.3-2.3c0-1.3-1-2.3-2.3-2.3
		C1488.4,865.5,1487.3,866.6,1487.3,867.8z"/>
	<path class="st0" d="M1473.9,867.8c0,1.3,1,2.3,2.3,2.3c1.3,0,2.3-1,2.3-2.3c0-1.3-1-2.3-2.3-2.3
		C1474.9,865.5,1473.9,866.6,1473.9,867.8z"/>
	<path class="st0" d="M1500.8,877.2c0,1.3,1,2.3,2.3,2.3c1.3,0,2.3-1,2.3-2.3c0-1.3-1-2.3-2.3-2.3
		C1501.8,874.9,1500.8,875.9,1500.8,877.2z"/>
	<path class="st0" d="M1487.3,877.2c0,1.3,1,2.3,2.3,2.3c1.3,0,2.3-1,2.3-2.3c0-1.3-1-2.3-2.3-2.3
		C1488.4,874.9,1487.3,875.9,1487.3,877.2z"/>
	<path class="st0" d="M1473.9,877.2c0,1.3,1,2.3,2.3,2.3c1.3,0,2.3-1,2.3-2.3c0-1.3-1-2.3-2.3-2.3
		C1474.9,874.9,1473.9,875.9,1473.9,877.2z"/>
	<path class="st0" d="M1500.8,886.5c0,1.3,1,2.3,2.3,2.3c1.3,0,2.3-1,2.3-2.3c0-1.3-1-2.3-2.3-2.3
		C1501.8,884.3,1500.8,885.3,1500.8,886.5z"/>
	<path class="st0" d="M1487.3,886.5c0,1.3,1,2.3,2.3,2.3c1.3,0,2.3-1,2.3-2.3c0-1.3-1-2.3-2.3-2.3
		C1488.4,884.3,1487.3,885.3,1487.3,886.5z"/>
	<path class="st0" d="M1473.9,886.5c0,1.3,1,2.3,2.3,2.3c1.3,0,2.3-1,2.3-2.3c0-1.3-1-2.3-2.3-2.3
		C1474.9,884.3,1473.9,885.3,1473.9,886.5z"/>
</g>
<path class="st0" d="M1678.7,1086.4h63.5l-31.8-55L1678.7,1086.4z M1737.5,1083.7h-54.1l27.1-46.9L1737.5,1083.7z"/>
<polygon class="st1" points="1696.4,1074.1 1723.3,1068.1 1722.7,1065.5 1698.4,1070.9 1692.9,1045.9 1666.3,1051.8 1660.7,1026.8 
	1633.7,1032.8 1627.5,1004.7 1624.8,1005.3 1631.6,1036 1658.7,1030 1664.2,1055 1690.8,1049.1 "/>
<g>
	<path class="st0" d="M1420.2,972.9c0,5.5-4.4,9.9-9.9,9.9c-5.5,0-9.9-4.4-9.9-9.9c0-5.5,4.4-9.9,9.9-9.9
		C1415.8,963,1420.2,967.4,1420.2,972.9z"/>
</g>
<path class="st0" d="M1752.4,358.5c2.1,2.1,5.5,2.1,7.6,0c2.1-2.1,2.1-5.5,0-7.6c-2.1-2.1-5.5-2.1-7.6,0
	C1750.3,353,1750.3,356.4,1752.4,358.5z"/>
<path class="st0" d="M1790.2,351.7c2.1,2.1,5.5,2.1,7.6,0c2.1-2.1,2.1-5.5,0-7.6c-2.1-2.1-5.5-2.1-7.6,0
	C1788.2,346.2,1788.2,349.6,1790.2,351.7z"/>
<path class="st0" d="M1767.9,374c2.1,2.1,5.5,2.1,7.6,0c2.1-2.1,2.1-5.5,0-7.6c-2.1-2.1-5.5-2.1-7.6,0
	C1765.8,368.6,1765.8,371.9,1767.9,374z"/>
<path class="st0" d="M1745.6,396.4c2.1,2.1,5.5,2.1,7.6,0c2.1-2.1,2.1-5.5,0-7.6c-2.1-2.1-5.5-2.1-7.6,0
	C1743.5,390.9,1743.5,394.3,1745.6,396.4z"/>
<circle class="st0" cx="1809.6" cy="363.4" r="5.4"/>
<ellipse class="st0" cx="1787.2" cy="385.8" rx="5.4" ry="5.4"/>
<path class="st0" d="M1761.1,411.9c2.1,2.1,5.5,2.1,7.6,0c2.1-2.1,2.1-5.5,0-7.6c-2.1-2.1-5.5-2.1-7.6,0
	C1759,406.4,1759,409.8,1761.1,411.9z"/>
<circle class="st0" cx="1802.8" cy="401.3" r="5.4"/>
<polygon class="st0" points="1749.8,656.7 1744,643.3 1745.3,642.7 1750.6,654.8 1763,649.3 1768.8,662.5 1781.2,657.1 
	1787.1,670.5 1801.1,664.4 1801.7,665.7 1786.4,672.4 1780.5,659 1768.1,664.4 1762.3,651.2 "/>
<polygon class="st0" points="1730.9,656.7 1725,643.3 1726.3,642.7 1731.6,654.8 1744,649.3 1749.8,662.5 1762.3,657.1 
	1768.2,670.5 1782.1,664.4 1782.7,665.7 1767.4,672.4 1761.5,659 1749.1,664.4 1743.3,651.2 "/>
<polygon class="st1" points="1487.4,591.6 1406.2,627.7 1406.2,611.1 1487.4,575 "/>
<polygon class="st0" points="1490.3,583.7 1409.1,619.9 1409.1,603.2 1490.3,567.1 "/>
<path class="st0" d="M1589,794.7c0,7.5,6,13.5,13.5,13.5s13.5-6,13.5-13.5c0-7.5-6-13.5-13.5-13.5S1589,787.3,1589,794.7z"/>
<g>
	<path class="st0" d="M1500.8,276.5c0,1.3,1,2.3,2.3,2.3c1.3,0,2.3-1,2.3-2.3c0-1.3-1-2.3-2.3-2.3
		C1501.8,274.3,1500.8,275.3,1500.8,276.5z"/>
	<path class="st0" d="M1487.3,276.5c0,1.3,1,2.3,2.3,2.3c1.3,0,2.3-1,2.3-2.3c0-1.3-1-2.3-2.3-2.3
		C1488.4,274.3,1487.3,275.3,1487.3,276.5z"/>
	<path class="st0" d="M1473.9,276.5c0,1.3,1,2.3,2.3,2.3c1.3,0,2.3-1,2.3-2.3c0-1.3-1-2.3-2.3-2.3
		C1474.9,274.3,1473.9,275.3,1473.9,276.5z"/>
	<path class="st0" d="M1500.8,285.9c0,1.3,1,2.3,2.3,2.3c1.3,0,2.3-1,2.3-2.3c0-1.3-1-2.3-2.3-2.3
		C1501.8,283.6,1500.8,284.6,1500.8,285.9z"/>
	<path class="st0" d="M1487.3,285.9c0,1.3,1,2.3,2.3,2.3c1.3,0,2.3-1,2.3-2.3c0-1.3-1-2.3-2.3-2.3
		C1488.4,283.6,1487.3,284.6,1487.3,285.9z"/>
	<path class="st0" d="M1473.9,285.9c0,1.3,1,2.3,2.3,2.3c1.3,0,2.3-1,2.3-2.3c0-1.3-1-2.3-2.3-2.3
		C1474.9,283.6,1473.9,284.6,1473.9,285.9z"/>
	<path class="st0" d="M1500.8,295.3c0,1.3,1,2.3,2.3,2.3c1.3,0,2.3-1,2.3-2.3c0-1.3-1-2.3-2.3-2.3
		C1501.8,293,1500.8,294,1500.8,295.3z"/>
	<path class="st0" d="M1487.3,295.3c0,1.3,1,2.3,2.3,2.3c1.3,0,2.3-1,2.3-2.3c0-1.3-1-2.3-2.3-2.3
		C1488.4,293,1487.3,294,1487.3,295.3z"/>
	<path class="st0" d="M1473.9,295.3c0,1.3,1,2.3,2.3,2.3c1.3,0,2.3-1,2.3-2.3c0-1.3-1-2.3-2.3-2.3
		C1474.9,293,1473.9,294,1473.9,295.3z"/>
	<path class="st0" d="M1500.8,304.6c0,1.3,1,2.3,2.3,2.3c1.3,0,2.3-1,2.3-2.3c0-1.3-1-2.3-2.3-2.3
		C1501.8,302.3,1500.8,303.4,1500.8,304.6z"/>
	<path class="st0" d="M1487.3,304.6c0,1.3,1,2.3,2.3,2.3c1.3,0,2.3-1,2.3-2.3c0-1.3-1-2.3-2.3-2.3
		C1488.4,302.3,1487.3,303.4,1487.3,304.6z"/>
	<path class="st0" d="M1473.9,304.6c0,1.3,1,2.3,2.3,2.3c1.3,0,2.3-1,2.3-2.3c0-1.3-1-2.3-2.3-2.3
		C1474.9,302.3,1473.9,303.4,1473.9,304.6z"/>
</g>
<path class="st0" d="M1678.7,504.5h63.5l-31.8-55L1678.7,504.5z M1737.5,501.8h-54.1l27.1-46.9L1737.5,501.8z"/>
<polygon class="st1" points="1696.4,492.2 1723.3,486.2 1722.7,483.6 1698.4,489 1692.9,464 1666.3,469.9 1660.7,444.9 
	1633.7,450.9 1627.5,422.8 1624.8,423.4 1631.6,454.1 1658.7,448.1 1664.2,473.1 1690.8,467.2 "/>
<g>
	<path class="st0" d="M1420.2,391c0,5.5-4.4,9.9-9.9,9.9c-5.5,0-9.9-4.4-9.9-9.9c0-5.5,4.4-9.9,9.9-9.9
		C1415.8,381.1,1420.2,385.5,1420.2,391z"/>
</g>
<path class="st2" d="M1589,132.4c0,7.5,6,13.5,13.5,13.5s13.5-6,13.5-13.5c0-7.5-6-13.5-13.5-13.5S1589,124.9,1589,132.4z"/>
<path class="st3" d="M1321.1,112.9c0,2.9-2.3,5.2-5.2,5.2c-2.9,0-5.2-2.3-5.2-5.2s2.3-5.2,5.2-5.2
	C1318.8,107.7,1321.1,110,1321.1,112.9z"/>
</svg>
