<?xml version="1.0" encoding="utf-8"?>
<!-- Generator: Adobe Illustrator 25.0.1, SVG Export Plug-In . SVG Version: 6.00 Build 0)  -->
<svg version="1.1" id="Livello_1" xmlns="http://www.w3.org/2000/svg" xmlns:xlink="http://www.w3.org/1999/xlink" x="0px" y="0px"
	 viewBox="0 0 173.3 42.9" style="enable-background:new 0 0 173.3 42.9;" xml:space="preserve">
<style type="text/css">
	.st0{fill:#BCC6FF;}
	.st1{fill:#4261FF;}
	.st2{enable-background:new    ;}
	.st3{fill:#FFFFFF;}
</style>
<g transform="matrix(1.1, 0, 0.09, 1.02, -13.55, -6.17)">
	<g id="Rettangolo_10-2">
		<path class="st0" d="M35.4,11.9h16.3c2.7,0,4.5,2.6,4,5.8l-3,19c-0.5,3.2-3.1,5.8-5.9,5.8H30.6c-2.7,0-4.5-2.6-4-5.8l3-19
			C30,14.5,32.7,11.9,35.4,11.9z"/>
	</g>
</g>
<g transform="matrix(1.1, 0, 0.09, 1.02, -13.55, -6.17)">
	<g id="Rettangolo_9-2">
		<path class="st1" d="M23.1,9.3h20.5c2.7,0,4.5,2.6,4,5.8L43.8,39c-0.5,3.2-3.1,5.8-5.9,5.8H17.5c-2.7,0-4.5-2.6-4-5.8l3.8-23.9
			C17.7,11.9,20.4,9.3,23.1,9.3z"/>
	</g>
</g>
<g class="st2">
	<path class="st3" d="M63.8,36.5c-1.5,0-2.8-0.2-3.8-0.7c-1-0.5-1.9-1.1-2.5-2c-0.6-0.8-1.1-1.8-1.3-3c-0.2-1.1-0.3-2.4-0.2-3.8
		l1.2-14.9h4L60,26.6c-0.1,1.1-0.1,2,0.1,2.8c0.2,0.8,0.4,1.4,0.8,1.9c0.4,0.5,0.8,0.8,1.4,1.1c0.5,0.2,1.2,0.3,1.9,0.3
		c0.7,0,1.3-0.1,1.9-0.3c0.6-0.2,1.1-0.6,1.6-1.1c0.5-0.5,0.8-1.1,1.1-1.9c0.3-0.8,0.5-1.7,0.6-2.8l1.2-14.5h4L73.3,27
		c-0.1,1.4-0.4,2.6-0.8,3.8c-0.4,1.1-1.1,2.1-1.8,3c-0.8,0.8-1.7,1.5-2.9,2C66.6,36.2,65.3,36.5,63.8,36.5z"/>
	<path class="st3" d="M91.3,36c-0.5-1.2-1.2-2.6-2-4.1c-0.8-1.5-1.7-3-2.6-4.3c-0.5,0.5-1,1.2-1.5,2c-0.6,0.8-1.1,1.5-1.7,2.3
		c-0.6,0.8-1.1,1.6-1.6,2.3c-0.5,0.7-0.9,1.4-1.2,1.9h-4.6c1.1-1.9,2.4-3.9,3.9-5.9c1.4-2,3-4.1,4.7-6.3l-6.2-11.6h4.8l4.2,7.8
		l5.5-7.8h4.6l-8.1,11.5c1.5,2.3,2.7,4.5,3.8,6.6c1.1,2.1,2,4,2.7,5.7H91.3z"/>
</g>
<g class="st2">
	<path class="st3" d="M99.8,36l2-23.8h13.3l-0.2,2.9h-10.2l-0.6,7.2h9l-0.2,2.8h-9l-0.9,11H99.8z"/>
	<path class="st3" d="M122.2,36.3c-1.8,0-3.1-0.5-3.8-1.3c-0.7-0.8-1-2-0.8-3.7l1.8-21.4l3-0.6l-1.8,21.5c0,0.5,0,1,0,1.3
		c0.1,0.3,0.2,0.6,0.3,0.8c0.2,0.2,0.4,0.4,0.7,0.5c0.3,0.1,0.7,0.2,1.2,0.3L122.2,36.3z"/>
	<path class="st3" d="M141.9,27c-0.1,1.4-0.4,2.7-0.9,3.8c-0.5,1.1-1.1,2.1-1.8,3c-0.8,0.8-1.6,1.5-2.6,1.9c-1,0.4-2,0.7-3.2,0.7
		c-1.1,0-2.1-0.2-3.1-0.7c-0.9-0.4-1.7-1.1-2.3-1.9c-0.6-0.8-1.1-1.8-1.4-3c-0.3-1.1-0.4-2.4-0.3-3.8c0.1-1.4,0.4-2.7,0.9-3.8
		c0.5-1.2,1.1-2.1,1.8-3c0.8-0.8,1.6-1.5,2.6-1.9c1-0.4,2-0.7,3.2-0.7c1.1,0,2.1,0.2,3.1,0.7c0.9,0.4,1.7,1.1,2.3,1.9
		c0.6,0.8,1.1,1.8,1.4,3C141.9,24.4,142,25.6,141.9,27z M138.8,27c0.2-2-0.1-3.6-0.9-4.8c-0.7-1.2-1.8-1.8-3.3-1.8s-2.6,0.6-3.6,1.8
		c-0.9,1.2-1.5,2.8-1.6,4.8c-0.2,2,0.1,3.6,0.9,4.8c0.7,1.2,1.8,1.8,3.3,1.8s2.6-0.6,3.6-1.8C138.1,30.6,138.7,29,138.8,27z"/>
	<path class="st3" d="M159,36c-0.5-1.6-0.9-3.5-1.4-5.7c-0.5-2.1-0.9-4.3-1.3-6.6c-0.7,2.3-1.5,4.5-2.4,6.6c-0.8,2.1-1.6,4-2.3,5.7
		h-2.6c-0.8-2.4-1.5-5.1-2.2-8.1c-0.7-3-1.3-6.3-1.8-9.8h3.2c0.1,1.1,0.3,2.2,0.5,3.5c0.2,1.3,0.4,2.5,0.6,3.8
		c0.2,1.3,0.5,2.5,0.7,3.6c0.3,1.2,0.5,2.2,0.8,3.1c0.4-1.1,0.9-2.2,1.3-3.4c0.4-1.2,0.9-2.4,1.3-3.6c0.4-1.2,0.8-2.4,1.2-3.6
		c0.4-1.2,0.7-2.3,1-3.3h2.4c0.1,1,0.2,2.1,0.4,3.3c0.2,1.2,0.4,2.4,0.6,3.6c0.2,1.2,0.4,2.4,0.7,3.6c0.2,1.2,0.5,2.3,0.8,3.4
		c0.4-0.9,0.8-1.9,1.3-3.1c0.4-1.2,0.9-2.4,1.3-3.6c0.4-1.3,0.9-2.5,1.3-3.8c0.4-1.3,0.8-2.4,1-3.5h3c-1.1,3.5-2.3,6.8-3.4,9.8
		c-1.2,3-2.4,5.7-3.5,8.1H159z"/>
</g>
</svg>
