<?xml version="1.0" encoding="utf-8"?>
<!-- Generator: Adobe Illustrator 25.0.1, SVG Export Plug-In . SVG Version: 6.00 Build 0)  -->
<svg version="1.1" xmlns="http://www.w3.org/2000/svg" xmlns:xlink="http://www.w3.org/1999/xlink" x="0px" y="0px"
	 viewBox="0 0 95.2 88" style="enable-background:new 0 0 95.2 88;" xml:space="preserve">
<style type="text/css">
	.st0{fill:#4964F5;}
	.st1{fill:none;stroke:#FFFFFF;stroke-width:6;stroke-linecap:round;stroke-miterlimit:10;}
</style>
<g id="star">
	<path class="st0" d="M54.6,11.9l0.8,0.6c2,1.6,4.4,2.6,7,2.6h1c5.3,0,9.8,3.8,10.7,9l0.2,1c0.4,2.5,1.8,4.8,3.7,6.5l0.8,0.6
		c4.1,3.4,5.1,9.2,2.4,13.8l-0.5,0.9c-1.3,2.2-1.7,4.8-1.3,7.3l0.2,1c0.9,5.2-2,10.3-7,12.1l-0.9,0.3c-2.4,0.9-4.4,2.6-5.7,4.8
		l-0.5,0.9c-2.6,4.6-8.2,6.6-13.2,4.8l-0.9-0.3c-2.4-0.9-5.1-0.9-7.5,0L42.9,78c-5,1.8-10.5-0.2-13.2-4.8l-0.5-0.9
		c-1.3-2.2-3.3-3.9-5.7-4.8l-0.9-0.3c-5-1.8-7.9-6.9-7-12.1l0.2-1c0.4-2.5,0-5.1-1.3-7.3L14,45.9c-2.6-4.6-1.6-10.4,2.4-13.8
		l0.8-0.6c2-1.6,3.3-3.9,3.7-6.5l0.2-1c0.9-5.2,5.4-9,10.7-9h1c2.6,0,5-0.9,7-2.6l0.8-0.6C44.6,8.5,50.6,8.5,54.6,11.9z"/>
</g>
<g id="line">
	<polyline class="st1" points="32.8,42.6 43.7,54 66.1,32.4 	"/>
</g>
</svg>
