<?xml version="1.0" encoding="utf-8"?>
<!-- Generator: Adobe Illustrator 25.0.1, SVG Export Plug-In . SVG Version: 6.00 Build 0)  -->
<svg version="1.1" id="Livello_1" xmlns="http://www.w3.org/2000/svg" xmlns:xlink="http://www.w3.org/1999/xlink" x="0px" y="0px"
	 viewBox="0 0 761.7 332.3" style="enable-background:new 0 0 761.7 332.3;" xml:space="preserve">
<style type="text/css">
	.st0{fill:#FFFFFF;stroke:#4964F5;stroke-width:3.144;stroke-linecap:round;stroke-miterlimit:10;}
	.st1{fill:#FFFFFF;}
	.st2{fill:#7B94FF;}
	.st3{fill:none;stroke:#4964F5;stroke-width:3.144;stroke-linecap:round;stroke-miterlimit:10;}
	.st4{fill:none;stroke:#4964F5;stroke-width:5.200000e-02;stroke-linecap:round;stroke-miterlimit:10;}
	.st5{fill:#4964F5;}
	.st6{fill:#97ABFF;}
	.st7{fill:#FFFFFF;stroke:#4964F5;stroke-width:2.666;stroke-linecap:round;stroke-miterlimit:10;}
	.st8{fill:none;stroke:#4964F5;stroke-width:3.144;stroke-linecap:round;stroke-linejoin:round;}
</style>
<path id="Tracciato_71" class="st0" d="M178.2,236.6V16.1c0-7.9,6.4-14.3,14.3-14.3l0,0h398c7.9,0,14.3,6.4,14.3,14.3v258.6
	c0,7.9-6.4,14.3-14.3,14.3h-428c-1.3,0-2.7-0.2-4-0.6"/>
<path id="Tracciato_72" class="st1" d="M643.8,80.5c0,0-12.3-25.9,8.6-30.9s35.2,0.6,35.2,0.6l17.9,17l5.9,7.7c0,0-0.8,13,1.6,18.8
	s-12.7,11.1-20.1,20.4S643.8,80.5,643.8,80.5z"/>
<path id="Tracciato_73" class="st1" d="M91.6,125.9l-43.2,3.4L61,91l12-18.5c0,0,12.3-9.9,13.3-10.2s14.8-6.5,14.8-6.5l10.8,1.5
	l10.5,10.8v9.6c0,0,1.9,15.7,4.6,19.4c1.8,2.6,3.1,5.5,3.7,8.6l-4.3,14.8L91.6,125.9z"/>
<path id="Tracciato_74" class="st2" d="M10.9,119.7c-8.4,9.7-18.6,27-2,42.7c5.8,5.4,13,9,20.8,10.3l33.9,6
	c2.1-3.9,4.7-7.6,7.7-10.8c0,0-0.6-40.4-2.8-42.6l-8.9-4.3l-5.6-6.5l2.5-11.9l6.8-4.2l3.1-0.6c0,0,10.2,4,18.5-7.4
	s23.2-31.2,23.2-31.2l-0.6,16.7c0,0,16.4,1.9,21-1.5c0,0,2.5-32.7-29-29.6c-12.1-5.5-26.2-4-36.7,4c-17.4,12.7-15.5,51-38.8,61.5
	C18.8,112.4,14.5,115.6,10.9,119.7z"/>
<path id="Tracciato_75" class="st0" d="M174,259.3c0,0,39.8,34.6,58.3,26.5s44.4-96.9,46.6-103.7s-1.5-17.6-1.5-17.6
	s14.8-30.6,4.3-31.8s-41.4,49.4-41.4,49.4s-2.2-4-1.2-15.1s-4.9-17.3-9.9-16.7s0.3,24.7-0.3,36.1s12.7,21.9,12.7,21.9L219.1,238
	l-35.8-29.3C183.3,208.6,149.6,203.7,174,259.3z"/>
<path id="Tracciato_76" class="st1" d="M42,271c0,0-7.6-33.2,3.4-39.2s38.4,0.2,38.4,0.2l6,7.9l1.7,25L84,287.6L42,271z"/>
<path id="Tracciato_77" class="st2" d="M70.6,170.1c0,0-36.1,10.1-36.6,28.1s5.1,53.2,5.1,53.2s5.1-13.4,23.2-9.7
	s24.1,13.4,24.1,13.4v75.5h87.5c0,0-4.2-38,2.8-56c6.7-17.3,3.1-46.9,0.8-57.1c-0.2-0.7,0.2-1.5,0.9-1.9c3.1-1.6,11.6-5.1,16.4,0.2
	c0,0-28.7-40.9-79.6-49.4"/>
<path id="Tracciato_78" class="st0" d="M115,136.9v29.6c10.3,2.4,17.3,7,17.3,12.2c0,7.8-15.4,14-34.4,14s-34.4-6.3-34.4-14
	c0-3.2,2.6-6.2,7.1-8.5v-41.6"/>
<path id="Tracciato_79" class="st0" d="M124.6,72.2c0,0-4.5,9.7-1.7,15.4s7.9,18.2,7.9,18.2c10.8,26.5-21.3,31.8-21.3,31.8
	c-30.3,5.2-43.2-14.5-43.2-14.5"/>
<line id="Linea_8" class="st3" x1="177.7" y1="46" x2="604.3" y2="46"/>
<path id="Tracciato_80" class="st3" d="M73.8,120.7c-5.6,4.1-13.6,2.9-17.7-2.7s-2.9-13.6,2.7-17.7c3.6-2.6,8.3-3.2,12.4-1.5"/>
<path id="Tracciato_81" class="st3" d="M99,113.9c4.4,2.9,9.8,4,15,3.1"/>
<path id="Tracciato_82" class="st3" d="M104.9,122.3c2.9,0.8,6,0.9,9,0.4"/>
<path id="Tracciato_83" class="st3" d="M88.2,80.7c0,0,9.9-7.9,15.7-1.5"/>
<path id="Tracciato_84" class="st3" d="M115.7,80.7c0,0,9.9-7.9,15.7-1.5"/>
<path id="Tracciato_85" class="st3" d="M111,81.8c0,0-2.8,5.6,1.4,9.7s10.8,8,6,12.7"/>
<path id="Tracciato_86" class="st3" d="M95.4,88.7c0,0,4.6-4.3,7.3-1.5"/>
<path id="Tracciato_87" class="st1" d="M40,254.6l6.9,54.6l5.9,9.3l8.6,7.1l8.3,1.9l11.1-1.1l24.2-11.6l18.7-13.3l15-13.1l5.9-8.6
	l2.3-8.3l-2.8-19.9l8.5,2.5c0,0,8.5-0.5,9.3-0.8s4.9-11.9,4.9-11.9l0.9-8.8c0,0-3.4-11.1-3.9-11.4s-4.3-6-4.8-6.3
	s-13.7-2.6-13.7-2.6l9.3-2.3c0,0,12.8,1.4,13.3,1.4s8.2-0.3,8.2-0.3l1.1-4.5l-4.5-3.9l-11.1-4.6l-11.6,0.8l-10,3.9l-6.5,3.4
	l-4.9,6.2l-0.8,5.6v9.3l3.7,30.3l-44.4,21.9"/>
<path id="Tracciato_88" class="st0" d="M123.7,87.2c-2.6-2.8-7.3,1.5-7.3,1.5"/>
<path id="Tracciato_89" class="st3" d="M60.1,104c0,0,0.9,6.3,9.8,5.8c0.1,0,0.2,0.1,0.2,0.2c0,0.1,0,0.1-0.1,0.2
	c-1.2,1-3.8,3.5-3.5,5.6"/>
<path id="Tracciato_90" class="st3" d="M39.1,251.5l6.5,53.2c0,0,5.1,27.8,32.4,22.2s63.9-41.7,66.7-47.2s-0.5-28.2-0.5-28.2
	s15.7,7.1,18.8,0c0,0,9.4-13.4,1.9-28.9c0,0-2.5-11.3-22.9-10.1c-0.1,0-0.3-0.1-0.3-0.2c0-0.1,0.1-0.2,0.2-0.3
	c3-1.3,11.5-4.3,23.2-1.6c14.7,3.4,12.5-4,10.5-6c-1.9-1.9-14.7-10.4-34.4-3.1c-3.9,1.4-7.4,3.7-10.2,6.9c-1.5,1.6-2.7,3.6-3.2,5.8
	c-1.1,5.6,3.9,44.4,3.9,44.4l-45.8,21.5"/>
<line id="Linea_9" class="st3" x1="131.6" y1="258.5" x2="133.3" y2="275.3"/>
<path id="Tracciato_91" class="st3" d="M277.4,164.5c-2.7-6.7,3.4-19.9,1.5-22.5s-7.6,8.8-7.9,9.5c0,0-5.8,12.5,0.2,22.7"/>
<path id="Tracciato_92" class="st3" d="M253.5,164.3c3.9-0.4,7.9,0.9,10.9,3.5"/>
<path id="Tracciato_93" class="st4" d="M310.4,168.4"/>
<circle id="Ellisse_112" class="st5" cx="240.1" cy="23.3" r="9.3"/>
<circle id="Ellisse_113" class="st2" cx="211.1" cy="23.3" r="9.3"/>
<circle id="Ellisse_114" class="st3" cx="270.3" cy="23.3" r="9.3"/>
<path id="Tracciato_94" class="st6" d="M351.8,135.4c0,0-1.8,49.1,21,52.8c0.2,0,0.4,0.2,0.3,0.4c0,0.2-0.1,0.3-0.3,0.3l-55.7,13
	c0,0-22.5-30.5-17.3-59.5L351.8,135.4z"/>
<path id="Tracciato_95" class="st7" d="M357.4,126.6c0,0-1.8,49.1,21,52.8c0.2,0,0.4,0.2,0.3,0.4c0,0.2-0.1,0.3-0.3,0.3l-55.7,13
	c0,0-22.5-30.5-17.3-59.5L357.4,126.6z"/>
<path id="Tracciato_96" class="st6" d="M325.4,140.1l14.3-1.9v-21.1l-15,1.3L325.4,140.1z"/>
<path id="Tracciato_97" class="st6" d="M402.1,87.3c0,0,12.5,47.5-9,56.1c-0.2,0.1-0.3,0.3-0.2,0.5c0.1,0.2,0.2,0.3,0.4,0.3
	l57.2,0.5c0,0,15.3-34.7,3.9-61.9L402.1,87.3z"/>
<path id="Tracciato_98" class="st7" d="M394.7,79.9c0,0,12.5,47.5-9,56.1c-0.2,0.1-0.3,0.3-0.2,0.5c0.1,0.1,0.2,0.2,0.4,0.2
	l57.2,0.5c0,0,15.3-34.7,3.9-61.9L394.7,79.9z"/>
<path id="Tracciato_99" class="st6" d="M428.9,86.1l-14.4,1.3l-4.6-20.5l14.9-2L428.9,86.1z"/>
<g id="Raggruppa_36" transform="translate(2694.146 471.313)">
	<path id="Tracciato_100" class="st0" d="M-2159-342.5c0,0,1.2-8.8,11.1-5.6s16.2,11.6,12,16.9s-18.3-4.4-18.3-4.4"/>
	<path id="Tracciato_101" class="st0" d="M-2185.6-323.1c0,0,4.2-19.4,26.6-19.4s14.8,31.3-15.5,28
		C-2174.5-314.5-2172.4-327.7-2185.6-323.1z"/>
	<path id="Tracciato_102" class="st0" d="M-2187-310.6l3.2,38.4c0,0,30.1-1.6,34.3-12s2.3-25.2,7.9-32.9s2.8-15-6.9-8.6
		s-11.6,12.7-8.3,23.1"/>
	<path id="Tracciato_103" class="st0" d="M-2178.2-334.4c0,0,21.3-0.7,14.6,19.7"/>
	<path id="Tracciato_104" class="st0" d="M-2170.7-340.3c0,0,22.2,0.2,15.5,20.6"/>
	<path id="Tracciato_105" class="st0" d="M-2178-315c0,0,13,21.8,10.2,28.2c-2.8,6.5-16,14.6-16,14.6"/>
</g>
<path id="Tracciato_106" class="st2" d="M596.4,186.7c-1-0.5,30.9-32.7,59.9-40.4l36.6-3.7c0,0,59.4,27.4,64.7,40.7s4,57.4,4,57.4
	v51.4c0,6-1.8,11.9-5.2,16.9c-2.7,3.9-6.6,7.3-11.8,7.6l2.2,12.7H605.7C605.7,329.3,612.5,195.6,596.4,186.7z"/>
<path id="Tracciato_107" class="st0" d="M700.4,151.1l-0.5-42.5l-41.4,6.2V145c-7.6,2.6-12.7,7.1-12.7,12.2
	c0,8.1,12.8,14.7,28.6,14.7s28.6-6.6,28.6-14.7C702.9,154.9,701.9,152.7,700.4,151.1z"/>
<path id="Tracciato_108" class="st4" d="M712.5,100.2"/>
<path id="Tracciato_109" class="st0" d="M641.2,58.3c0,0-8.9,36.7-9.6,42.3c-1.1,9,2.2,24.4,28.1,27.8c25.9,3.4,40.4-21.9,40.4-21.9
	"/>
<path id="Tracciato_110" class="st4" d="M647.7,195.6l0.9,2.3"/>
<path id="Tracciato_111" class="st0" d="M491,190.5l28.5,79.7c1.4,3.8,5,6.4,9.1,6.3l120.3-2.8c5.2-0.1,9.3-4.4,9.2-9.7
	c0-1-0.2-2.1-0.6-3l-28.8-78.6c-1.4-3.8-5-6.2-9-6.2l-119.9,1.6c-5.2,0.1-9.4,4.4-9.3,9.6C490.4,188.5,490.6,189.5,491,190.5z"/>
<ellipse id="Ellisse_115" class="st5" cx="679.6" cy="284.6" rx="9" ry="26.9"/>
<path id="Tracciato_112" class="st0" d="M642.6,195.1c0,0-19.2-12.3-30.1-1.4c-6,6-1.4,13,10.6,11.1s19.5,11.6,19.5,11.6
	s-30.1-3.2-27.3,18.1s17.6,29.6,18.1,23.6c0.5-6-0.5-11.1,6-7.4s24.5,40.7,34.3,33.3S670.4,210,642.6,195.1z"/>
<path id="Tracciato_113" class="st0" d="M616.6,237.7c0,0,9.7-20.8,29.6-12"/>
<path id="Tracciato_114" class="st0" d="M620.4,248.4c0,0,9.7-20.8,29.6-12"/>
<path id="Tracciato_115" class="st0" d="M508.5,148.2L490,161.9l-1.6,7.2l8.1,0.2l22.5-14.4C518.9,154.9,522.7,143.8,508.5,148.2z"
	/>
<line id="Linea_10" class="st3" x1="86.3" y1="330.7" x2="745.8" y2="330.7"/>
<path id="Tracciato_116" class="st3" d="M700.3,81.1c-1.7,0-3.4,0.3-4.9,1"/>
<path id="Tracciato_117" class="st3" d="M692.8,104c5.6,4.1,13.6,2.9,17.7-2.7c1.6-2.2,2.5-4.8,2.5-7.5"/>
<path id="Tracciato_118" class="st3" d="M706.5,87.3c0,0-0.9,6.3-9.8,5.8c-0.1,0-0.2,0.1-0.2,0.2c0,0.1,0,0.1,0.1,0.2
	c1.2,1,3.8,3.5,3.5,5.6"/>
<path id="Tracciato_119" class="st2" d="M644.7,35.7c-5.6-5.8-15.1,0.3-12.5,7.9c2.1,6.1,6,13.5,12.6,15.4
	c11.7,3.4,44.4,6.5,42.6,17.3s4.1,10.8,13,4.9c0,0,8,1.2,10.5,4.3s13.9-35.8-16.7-42.9s-42.9,0.6-49.1-6.5
	C644.9,35.9,644.8,35.8,644.7,35.7z"/>
<path id="Tracciato_120" class="st3" d="M713,93.8c0-7-5.7-12.7-12.7-12.7c0,0,0,0,0,0"/>
<line id="Linea_11" class="st3" x1="675.9" y1="258" x2="732.1" y2="266"/>
<line id="Linea_12" class="st3" x1="679.6" y1="309.6" x2="735.8" y2="317.6"/>
<path id="Tracciato_121" class="st3" d="M654.3,75.3l-8.6,20.4l4.6,4"/>
<path id="Tracciato_122" class="st3" d="M638.1,70.8c0,0,8.2-3.2,10.5,4.5"/>
<path id="Tracciato_123" class="st3" d="M662.8,75.6c0,0,8.2-3.2,10.5,4.5"/>
<path id="Tracciato_124" class="st8" d="M659.4,81.1c0,0,0.3,4.9-3.6,4.6l10,2.5"/>
<path id="Tracciato_125" class="st8" d="M637.9,77.1c0,0,0.3,4.9-3.6,4.6l10,2.5"/>
<path id="Tracciato_126" class="st8" d="M652,117.3c0,0,8.8,0.2,14-2.9"/>
</svg>
